<svg xmlns="http://www.w3.org/2000/svg" xmlns:xlink="http://www.w3.org/1999/xlink" viewBox="0 0 1026.54 248.18"><defs><clipPath id="clip-path" transform="translate(-14.52 -30.2)"><rect x="14.39" y="28.23" width="246.46" height="147.23" transform="translate(-20.93 37.26) rotate(-14.34)" style="fill:none"/></clipPath></defs><title>LogoMapa_2</title><g id="Capa_2" data-name="Capa 2"><g id="Capa_1-2" data-name="Capa 1"><path d="M325.58,176.48c-.75-13.35-1.5-28.2-1.05-39.6h-.61c-2.25,11.25-4.94,23.25-8.09,35.1l-12.45,47.4H296l-11.85-45.45c-3.3-12.9-6.3-25.35-8.25-37.05h-.45c0,11.85-.6,26-1.2,40.35L272.33,220H262l6-101.09h12.45l11.85,46.19c3.45,13.35,6,23.25,8.1,34.8h.45c1.95-11.55,4.2-21.15,7.5-34.8l11.4-46.19h12.9L338.47,220h-10.8Z" transform="translate(-14.52 -30.2)" style="fill:#1a1a1a"/><path d="M382,220l-.75-7.65h-.45c-3.15,5.55-8.25,8.85-14.4,8.85-9.75,0-17.25-8.25-17.25-20.7,0-18.15,14.55-26.25,30.9-26.4v-2.25c0-9.75-2.4-16.5-11.55-16.5a21.86,21.86,0,0,0-12,3.75l-2.55-8.1c3-2.25,9.75-4.8,16.95-4.8,14.55,0,20.85,9.6,20.85,25.95v31.35c0,5.55,0,11.85.75,16.5Zm-1.65-37.5c-6,0-19.95,1.05-19.95,16.8,0,9.45,4.8,12.9,8.85,12.9,5.1,0,9.45-3.75,10.8-11a19.12,19.12,0,0,0,.3-4Z" transform="translate(-14.52 -30.2)" style="fill:#1a1a1a"/><path d="M407.78,170c0-11.1-.45-17.55-.6-22.65h10.35l.6,9.3h.3c3.9-7.8,9.6-10.5,15.3-10.5,12.6,0,21,13.5,21,37.35,0,26.85-11.09,37.65-22.49,37.65-6.75,0-10.65-4.35-12.6-8.4h-.3v36H407.78Zm11.55,23.25a24.42,24.42,0,0,0,.45,6c2.25,10.35,7.5,12.3,10.65,12.3,9.6,0,12.6-13.2,12.6-27.9,0-15-3.6-27.6-12.75-27.6-5.25,0-9.9,6.6-10.65,13.2a33.52,33.52,0,0,0-.3,5.55Z" transform="translate(-14.52 -30.2)" style="fill:#1a1a1a"/><path d="M496.42,220l-.75-7.65h-.45c-3.15,5.55-8.25,8.85-14.39,8.85-9.75,0-17.25-8.25-17.25-20.7,0-18.15,14.55-26.25,30.89-26.4v-2.25c0-9.75-2.4-16.5-11.55-16.5a21.83,21.83,0,0,0-12,3.75l-2.55-8.1c3-2.25,9.75-4.8,16.95-4.8,14.54,0,20.84,9.6,20.84,25.95v31.35c0,5.55,0,11.85.75,16.5Zm-1.65-37.5c-6,0-19.94,1.05-19.94,16.8,0,9.45,4.8,12.9,8.84,12.9,5.1,0,9.45-3.75,10.8-11a19.12,19.12,0,0,0,.3-4Z" transform="translate(-14.52 -30.2)" style="fill:#1a1a1a"/><path d="M589.57,175.58h-23.1v27.3h26.1V220H546.82V118.89h43.95V136h-24.3v23.25h23.1Z" transform="translate(-14.52 -30.2)" style="fill:#1a1a1a"/><path d="M656.17,116.19v82c0,7.05.3,15,.6,21.75H639.82l-1.05-8.25h-.3a17.87,17.87,0,0,1-15.3,9.45c-15.59,0-22.79-17.25-22.79-37.8,0-25.5,11.09-37.95,23.54-37.95,6.45,0,10.5,3.15,12.3,7.35h.3V116.19Zm-19.65,58.64c0-1.35,0-2.85-.15-4.35-.75-4.5-3.15-8.55-7-8.55-6.9,0-9.45,10-9.45,21.9,0,13.95,3.75,21.3,9.3,21.3,2.4,0,5.25-1.35,6.75-6.45a12.55,12.55,0,0,0,.6-4.5Z" transform="translate(-14.52 -30.2)" style="fill:#1a1a1a"/><path d="M723.67,197.63c0,7.8.3,15.45.6,22.35H707.32l-1.05-7.8H706a20.71,20.71,0,0,1-17,9c-13.95,0-19.65-10.35-19.65-30.15v-44.4h19.8v42.3c0,9.6,1.8,15.75,7.35,15.75,3.3,0,5.4-2.55,6.3-5a14.71,14.71,0,0,0,1.2-6.3v-46.8h19.65Z" transform="translate(-14.52 -30.2)" style="fill:#1a1a1a"/><path d="M778.42,218.78a34.6,34.6,0,0,1-12.45,2.1c-18.6,0-30.75-12.9-30.75-36.9,0-22.65,13.35-38.4,33.6-38.4a28.82,28.82,0,0,1,10.8,1.95L777.07,163a20.65,20.65,0,0,0-7.35-1.35c-9.45,0-15,9-15,21.75,0,13.35,5.55,21.45,14.7,21.45a16.09,16.09,0,0,0,7.35-1.5Z" transform="translate(-14.52 -30.2)" style="fill:#1a1a1a"/><path d="M821.32,220l-1.05-7.2H820a19.15,19.15,0,0,1-16.2,8.4c-11.1,0-19.35-9.3-19.35-22.35,0-19.2,17-27.15,33.6-27.3v-1.65c0-5.7-3.45-9.9-10.35-9.9a27.45,27.45,0,0,0-15,4.2l-3.6-13.2c4-2.4,12.6-5.55,22.8-5.55,22.35,0,26,15.6,26,30.45v27.3A98.36,98.36,0,0,0,839,220Zm-2.7-35.7c-6.6.15-15.6,2.25-15.6,12.45,0,7.35,4.05,10.05,7.05,10.05a8.53,8.53,0,0,0,8.1-6.3,12.79,12.79,0,0,0,.45-3.45Z" transform="translate(-14.52 -30.2)" style="fill:#1a1a1a"/><path d="M873.37,126.84v19.79h14.4v14h-14.4V194c0,8.55,3.6,10.65,7.5,10.65a26.89,26.89,0,0,0,5.1-.45l.15,15.3a46.28,46.28,0,0,1-12,1.35c-5.7,0-10.65-1.35-14.1-4.65-4-3.9-6.3-9.45-6.3-21V160.58H845v-14h8.7V131.48Z" transform="translate(-14.52 -30.2)" style="fill:#1a1a1a"/><path d="M916.57,127.14a10,10,0,0,1-10.35,10.64c-5.4,0-9.9-4.34-9.75-10.64-.15-6.6,4.65-10.65,10-10.65C912.22,116.49,916.57,120.54,916.57,127.14ZM896.92,220V146.63h19.65V220Z" transform="translate(-14.52 -30.2)" style="fill:#1a1a1a"/><path d="M945.07,146.63l5.55,32.7c1,6.6,2.1,13.2,3.15,20.55h.3c.9-7.5,1.8-13.65,2.85-20.55l5.7-32.7H982L962.32,220H944.17l-19.95-73.35Z" transform="translate(-14.52 -30.2)" style="fill:#1a1a1a"/><path d="M1041.07,183.08c0,30.6-17,38.1-28,38.1-17.55,0-28-13.8-28-37.65,0-26.4,13.8-38.1,28.35-38.1C1030.57,145.43,1041.07,160,1041.07,183.08Zm-36.6,0c0,12.6,1.95,23.1,9,23.1,6.3,0,7.95-12.3,7.95-23.1,0-10.05-1.65-22.8-8.25-22.8C1006,160.28,1004.47,173,1004.47,183.08Z" transform="translate(-14.52 -30.2)" style="fill:#1a1a1a"/><path d="M140.35,112.47c35.1-9,66.73-3.53,70.69,12s-21.18,35.45-56.28,44.42-66.72,3.53-70.68-12,21.17-35.44,56.27-44.42Z" transform="translate(-14.52 -30.2)" style="fill:#2b414d"/><g style="clip-path:url(#clip-path)"><path d="M16.31,114.35l97.31-80.77a16.19,16.19,0,0,1,12.32-3.15L250.07,54.59c3.79.82,4.55,3.81,1.62,6.35l-97.3,80.77a16.22,16.22,0,0,1-12.33,3.15L17.93,120.69c-3.79-.82-4.55-3.8-1.62-6.34Z" transform="translate(-14.52 -30.2)" style="fill:#2b414d"/></g><path d="M188.22,170.1c0,16-14.29,29-31.9,29s-31.93-13-31.93-29,14.29-29,31.93-29,31.9,13,31.9,29Z" transform="translate(-14.52 -30.2)" style="fill:#e6e6e6"/><path d="M156.32,278.21s70.62-72.68,70.62-108.09S195.31,106,156.32,106s-70.64,28.72-70.64,64.16,70.64,108.09,70.64,108.09Zm0-152.4c26.91,0,48.76,19.83,48.76,44.29s-21.85,44.3-48.76,44.3-48.78-19.84-48.78-44.3,21.84-44.29,48.78-44.29Z" transform="translate(-14.52 -30.2)" style="fill:#fff"/><path d="M185.13,169.78c0,15.47-13.59,28-30.35,28s-30.37-12.54-30.37-28,13.59-28,30.37-28,30.35,12.54,30.35,28Z" transform="translate(-14.52 -30.2)" style="fill:#fff"/><path d="M170.25,106.26l-1.85,20.55c18.37,6,31.62,22.87,31.62,42.75,0,22.62-17.14,41.36-39.47,44.61l-5.77,64.21c8.85-9.94,66-75.53,66-108.8C220.82,139.07,199.31,113.45,170.25,106.26Z" transform="translate(-14.52 -30.2)" style="fill:#e6e6e6"/><path d="M51.91,163.33l-5.6,1.43c5.3,21.52,3.9,30.83,3.9,30.83l21.49-1.52s-14.78-11.14-19.79-30.74ZM40,116.65l-5.6,1.43,11,42.94,5.6-1.43Zm11.94,46.68-5.6,1.43c5.3,21.52,3.9,30.83,3.9,30.83l21.49-1.52s-14.78-11.14-19.79-30.74ZM40,116.65l-5.6,1.43,11,42.94,5.6-1.43Z" transform="translate(-14.52 -30.2)" style="fill:#2b414d"/><path d="M194.46,82.93c-3.39-13.26-31.92-17.5-63.85-9.34C98.87,81.71,75.82,98.93,79,112.24c0,0,4.91,44.89,5.09,44.84-3.24-12.7,19.5-35,56.47-44.47,34.35-8.78,64,.74,70.45,11.83L194.46,82.93Z" transform="translate(-14.52 -30.2)" style="fill:#455e6b"/><path d="M134.16,72.68l10,39.21c32.77-7.18,60.58,2,66.9,12.74l-16.62-41.7c-3.3-12.88-29.82-17-60.3-10.25Z" transform="translate(-14.52 -30.2)" style="fill:#4b737d"/><path d="M140.6,112.22c-24.69,6.31-45.8,20.78-53.08,31.87,13.21,6.47,37.42,7.48,61.27,1.39s43-17.68,51.47-29.69C188.54,109.55,165.29,105.91,140.6,112.22Z" transform="translate(-14.52 -30.2)" style="fill:#2b414d;opacity:0.6"/><path d="M46.72,154.71A10.6,10.6,0,0,1,52,175.25a10.58,10.58,0,0,1-12.9-7.65,10.7,10.7,0,0,1,7.65-12.89Z" transform="translate(-14.52 -30.2)" style="fill:#475f6c"/></g></g></svg>