<svg xmlns="http://www.w3.org/2000/svg" xmlns:xlink="http://www.w3.org/1999/xlink" viewBox="0 0 846.83 145.62"><defs><clipPath id="clip-path"><path d="M62.5,101.27c.79,1.14,1.45,1.43,1.13,4.31.62-1.5.71-3.57,3.41-4.08-.68,2.4-1.54,2.2-1.54,4.53a3.76,3.76,0,0,1-2.09,3c-1.51.69-5.94.71-7.73.18-3-.85-3.71-5-2.59-6.12,1.38,3.76.39-.65,3.25,4.19-1-2-1.59-5.89-.06-8.09,0,3.08,1.8,4.38,2.4,8.53,0-2.68,1-3.85,1-6.54,2.45,2.46,1.21,4.42,1.45,5.64C61.8,104.27,63,104,62.5,101.27Z" style="fill:#e42624"/></clipPath></defs><title>LogoCtes</title><g id="Capa_2" data-name="Capa 2"><g id="Capa_1-2" data-name="Capa 1"><path d="M0,72.82C0,32.6,26.83,0,59.92,0s59.91,32.6,59.91,72.82S93,145.62,59.92,145.62,0,113,0,72.82Z" style="fill:#fff;fill-rule:evenodd"/><path d="M59.92,3.1C28.23,3.1,2.55,34.32,2.55,72.82s25.68,69.7,57.37,69.7,57.36-31.21,57.36-69.7S91.59,3.1,59.92,3.1Zm0,138.15c-31.11,0-56.32-30.64-56.32-68.43S28.81,4.37,59.92,4.37,116.23,35,116.23,72.82,91,141.25,59.92,141.25Z" style="fill:#1d1d1b"/><path d="M59.06,43.34a9.11,9.11,0,0,0-1.79,3.78A14.17,14.17,0,0,1,57,49.39a1.72,1.72,0,0,1-.14.37c-.06-.49-.18-1-.33-1.75A6,6,0,0,1,57,45.49a4.73,4.73,0,0,0-.23-2.63l-2.7,4.61,1.32-5.08V42.3l0,0a9.09,9.09,0,0,0-3.05,2.77,14.57,14.57,0,0,1-1.08,2,2.4,2.4,0,0,1-.28.27c.13-.46.21-1,.36-1.73a5.71,5.71,0,0,1,1.37-2.16A4.7,4.7,0,0,0,53.44,41l-4.25,3.22L52.35,40l0,0h0a8.81,8.81,0,0,0-3.89,1.4,14.8,14.8,0,0,1-1.77,1.44,2.18,2.18,0,0,1-.37.15,17.55,17.55,0,0,0,1-1.46A5.91,5.91,0,0,1,49.42,40a4.47,4.47,0,0,0,1.67-2l-5.15,1.34,4.51-2.66.08,0h-.05a9.18,9.18,0,0,0-4.12-.2,14.89,14.89,0,0,1-2.2.66h-.39c.43-.23.87-.56,1.48-1a6,6,0,0,1,2.5-.57,4.56,4.56,0,0,0,2.32-1.22l-5.27-.74,5.27-.74A9,9,0,0,0,46.31,31,14.3,14.3,0,0,1,44,30.78a1.54,1.54,0,0,1-.36-.15c.49-.05,1-.18,1.74-.32a5.61,5.61,0,0,1,2.53.44,4.68,4.68,0,0,0,2.6-.24L46,27.8,51,29.11l.09,0a0,0,0,0,1,0,0h0l0,0A8.91,8.91,0,0,0,48.3,26a15.24,15.24,0,0,1-2-1.1,1.77,1.77,0,0,1-.28-.27c.47.13,1,.21,1.74.36a5.42,5.42,0,0,1,2.14,1.38,4.78,4.78,0,0,0,2.53.77l-3.21-4.27,4.19,3.18.05,0h0v0a9.1,9.1,0,0,0-1.39-3.9,15,15,0,0,1-1.45-1.78q-.07-.16-.15-.36c.39.31.84.59,1.47,1a5.44,5.44,0,0,1,1.46,2.09,4.64,4.64,0,0,0,2,1.67l-1.35-5.16,2.66,4.52.05.08h0v-.05a8.94,8.94,0,0,0,.2-4.13,14,14,0,0,1-.65-2.19,2.67,2.67,0,0,1,0-.4c.23.43.55.87,1,1.48a5.87,5.87,0,0,1,.57,2.51,4.61,4.61,0,0,0,1.21,2.32l.74-5.28.74,5.28a4.57,4.57,0,0,0,1.24-2.32A6,6,0,0,1,62.37,19c.41-.61.73-1,1-1.48a2.67,2.67,0,0,1,0,.4,15.17,15.17,0,0,1-.65,2.19,9.35,9.35,0,0,0,.19,4.13v.05h0l0-.08,2.66-4.52-1.34,5.16a4.64,4.64,0,0,0,2-1.67,5.51,5.51,0,0,1,1.46-2.09c.61-.42,1.09-.7,1.47-1a3,3,0,0,1-.15.36,15.15,15.15,0,0,1-1.45,1.78,9,9,0,0,0-1.39,3.9v0h0l0,0,4.2-3.18-3.21,4.27a4.7,4.7,0,0,0,2.5-.77A5.57,5.57,0,0,1,71.92,25c.73-.15,1.27-.23,1.74-.36a2.34,2.34,0,0,1-.28.27,15.89,15.89,0,0,1-2,1.1,8.93,8.93,0,0,0-2.78,3.05l0,0h0l.07,0,5.07-1.31-4.59,2.71a4.74,4.74,0,0,0,2.62.24,5.5,5.5,0,0,1,2.52-.44c.72.14,1.25.27,1.72.32a1.26,1.26,0,0,1-.34.15,14.4,14.4,0,0,1-2.28.23,9,9,0,0,0-3.77,1.81l5.27.74-5.27.74a4.52,4.52,0,0,0,2.32,1.22,5.87,5.87,0,0,1,2.49.57c.62.41,1.06.74,1.48,1H75.5a15.51,15.51,0,0,1-2.19-.66,9.12,9.12,0,0,0-4.11.2h-.07l.09,0,4.5,2.66L68.58,38a4.46,4.46,0,0,0,1.66,2,5.86,5.86,0,0,1,2.11,1.49c.41.62.68,1.09,1,1.46a1.93,1.93,0,0,1-.35-.15,12.74,12.74,0,0,1-1.77-1.44,9,9,0,0,0-3.9-1.4h0l0,0,3.16,4.22L66.22,41A4.74,4.74,0,0,0,67,43.51a5.68,5.68,0,0,1,1.37,2.17,14,14,0,0,0,.36,1.72,1.45,1.45,0,0,1-.28-.27,16.48,16.48,0,0,1-1.09-2,9,9,0,0,0-3.05-2.77l0,0v0s0,0,0,0l0,.09,1.32,5.08-2.7-4.61a4.77,4.77,0,0,0-.25,2.63A5.69,5.69,0,0,1,63.11,48c-.15.74-.28,1.26-.33,1.75a1.8,1.8,0,0,1-.15-.37,15.3,15.3,0,0,1-.23-2.27,9.14,9.14,0,0,0-1.8-3.78Z" style="fill:#fcd706;stroke:#fcd706;stroke-width:1.1458700000000002px"/><path d="M49.42,40a4.47,4.47,0,0,0,1.67-2l-5.15,1.34,4.51-2.66.08,0h-.05a9.18,9.18,0,0,0-4.12-.2,14.89,14.89,0,0,1-2.2.66h-.39c.43-.23.87-.56,1.48-1a6,6,0,0,1,2.5-.57,4.56,4.56,0,0,0,2.32-1.22l-5.27-.74,5.27-.74A9,9,0,0,0,46.31,31,14.3,14.3,0,0,1,44,30.78a1.54,1.54,0,0,1-.36-.15c.49-.05,1-.18,1.74-.32a5.61,5.61,0,0,1,2.53.44,4.68,4.68,0,0,0,2.6-.24L46,27.8,51,29.11l.09,0a0,0,0,0,1,0,0h0l0,0A8.91,8.91,0,0,0,48.3,26a15.24,15.24,0,0,1-2-1.1,1.77,1.77,0,0,1-.28-.27c.47.13,1,.21,1.74.36a5.42,5.42,0,0,1,2.14,1.38,4.78,4.78,0,0,0,2.53.77l-3.21-4.27,4.19,3.18.05,0h0v0a9.1,9.1,0,0,0-1.39-3.9,15,15,0,0,1-1.45-1.78q-.07-.16-.15-.36c.39.31.84.59,1.47,1a5.44,5.44,0,0,1,1.46,2.09,4.64,4.64,0,0,0,2,1.67l-1.35-5.16,2.66,4.52.05.08h0v-.05a8.94,8.94,0,0,0,.2-4.13,14,14,0,0,1-.65-2.19,2.67,2.67,0,0,1,0-.4c.23.43.55.87,1,1.48a5.87,5.87,0,0,1,.57,2.51,4.61,4.61,0,0,0,1.21,2.32l.74-5.28.74,5.28a4.57,4.57,0,0,0,1.24-2.32A6,6,0,0,1,62.37,19c.41-.61.73-1,1-1.48a2.67,2.67,0,0,1,0,.4,15.17,15.17,0,0,1-.65,2.19,9.35,9.35,0,0,0,.19,4.13v.05h0l0-.08,2.66-4.52-1.34,5.16a4.64,4.64,0,0,0,2-1.67,5.51,5.51,0,0,1,1.46-2.09c.61-.42,1.09-.7,1.47-1a3,3,0,0,1-.15.36,15.15,15.15,0,0,1-1.45,1.78,9,9,0,0,0-1.39,3.9v0h0l0,0,4.2-3.18-3.21,4.27a4.7,4.7,0,0,0,2.5-.77A5.57,5.57,0,0,1,71.92,25c.73-.15,1.27-.23,1.74-.36a2.34,2.34,0,0,1-.28.27,15.89,15.89,0,0,1-2,1.1,8.93,8.93,0,0,0-2.78,3.05l0,0h0l.07,0,5.07-1.31-4.59,2.71a4.74,4.74,0,0,0,2.62.24,5.5,5.5,0,0,1,2.52-.44c.72.14,1.25.27,1.72.32a1.26,1.26,0,0,1-.34.15,14.4,14.4,0,0,1-2.28.23,9,9,0,0,0-3.77,1.81l5.27.74-5.27.74a4.52,4.52,0,0,0,2.32,1.22,5.87,5.87,0,0,1,2.49.57c.62.41,1.06.74,1.48,1H75.5a15.51,15.51,0,0,1-2.19-.66,9.12,9.12,0,0,0-4.11.2h-.07l.09,0,4.5,2.66L68.58,38a4.46,4.46,0,0,0,1.66,2,5.86,5.86,0,0,1,2.11,1.49l.3-.38a5.76,5.76,0,0,0-2.1-1.48,2.74,2.74,0,0,1-1-.88l5.61,1.46,1.66.42h0l-1.47-.87-4.93-2.91a8,8,0,0,1,2.92.09,15.17,15.17,0,0,0,2.19.65,3.61,3.61,0,0,0,1.29-.17C77.44,37.24,78,37,78,37a4.2,4.2,0,0,1-1.21-.15,7.77,7.77,0,0,1-2.21-1.27,5.62,5.62,0,0,0-2.5-.54,2.93,2.93,0,0,1-1.22-.46l5.74-.81,1.7-.24h0l-1.7-.23-5.67-.81a8.41,8.41,0,0,1,2.74-1.05,12.21,12.21,0,0,0,2.28-.24A3.27,3.27,0,0,0,77,30.59a9.3,9.3,0,0,0,.87-.77,4.76,4.76,0,0,1-1.17.33,8.27,8.27,0,0,1-2.52-.33,6,6,0,0,0-2.52.44,2.81,2.81,0,0,1-1.3.06l5-2.95,1.46-.87h0l-1.65.42-5.53,1.44a7.92,7.92,0,0,1,2.13-2,14.72,14.72,0,0,0,2-1.1,3.55,3.55,0,0,0,.78-1c.29-.54.51-1.05.51-1.05a4.43,4.43,0,0,1-1,.74,7.79,7.79,0,0,1-2.46.68A6,6,0,0,0,69.52,26a2.58,2.58,0,0,1-1.17.55l3.49-4.64,1-1.35v0l-1.36,1L66.94,25a7.93,7.93,0,0,1,1.19-2.68,15.82,15.82,0,0,0,1.44-1.78,3.62,3.62,0,0,0,.33-1.25A11.47,11.47,0,0,0,70,18.13a4.09,4.09,0,0,1-.59,1.05,7.92,7.92,0,0,1-2,1.56,5.73,5.73,0,0,0-1.47,2.1,2.8,2.8,0,0,1-.89,1l1.45-5.63.43-1.65h0L66,18l-2.9,4.94A8,8,0,0,1,63.21,20a15.39,15.39,0,0,0,.64-2.2,3.33,3.33,0,0,0-.16-1.28,10.4,10.4,0,0,0-.39-1.1,4.21,4.21,0,0,1-.14,1.2,8.24,8.24,0,0,1-1.26,2.22,6,6,0,0,0-.56,2.5,2.88,2.88,0,0,1-.46,1.22v0l-.82-5.77-.24-1.69h0l-.23,1.69-.81,5.75a2.76,2.76,0,0,1-.45-1.22,5.82,5.82,0,0,0-.56-2.5,8.32,8.32,0,0,1-1.27-2.22,4.63,4.63,0,0,1-.13-1.2,8.3,8.3,0,0,0-.39,1.1,3.56,3.56,0,0,0-.17,1.28,15.33,15.33,0,0,0,.65,2.2,7.8,7.8,0,0,1,.08,2.93L53.65,18l-.86-1.47h0l.41,1.65,1.46,5.63a2.8,2.8,0,0,1-.89-1,5.73,5.73,0,0,0-1.47-2.1,8.1,8.1,0,0,1-2-1.56,4.09,4.09,0,0,1-.59-1.05,11.47,11.47,0,0,0,.07,1.16,3.41,3.41,0,0,0,.33,1.25,14.77,14.77,0,0,0,1.43,1.78A7.93,7.93,0,0,1,52.73,25l-4.56-3.45-1.36-1v0l1,1.35,3.49,4.64A2.78,2.78,0,0,1,50.13,26,5.75,5.75,0,0,0,48,24.6a7.79,7.79,0,0,1-2.46-.68,4.17,4.17,0,0,1-1-.74,8.91,8.91,0,0,0,.51,1.05,3.74,3.74,0,0,0,.78,1,14.72,14.72,0,0,0,2,1.1,8.25,8.25,0,0,1,2.14,2l-5.54-1.44-1.65-.42h0l1.46.87,5,2.95A2.86,2.86,0,0,1,48,30.26a6,6,0,0,0-2.52-.44,8.22,8.22,0,0,1-2.53.33,4.76,4.76,0,0,1-1.15-.33,9.3,9.3,0,0,0,.87.77,3.43,3.43,0,0,0,1.1.64,12.48,12.48,0,0,0,2.29.24,8.58,8.58,0,0,1,2.74,1.05l-5.67.81-1.7.23h0l1.7.24,5.73.81a2.83,2.83,0,0,1-1.21.46,5.62,5.62,0,0,0-2.5.54,7.93,7.93,0,0,1-2.22,1.27,4.15,4.15,0,0,1-1.19.15s.51.21,1.1.38a3.56,3.56,0,0,0,1.28.17,15,15,0,0,0,2.18-.65,8.07,8.07,0,0,1,2.94-.09l-4.94,2.91-1.47.87h0l1.65-.42,5.61-1.46a2.69,2.69,0,0,1-1,.88Z" style="fill:#1d1d1b"/><path d="M61,30.45l.16-1.25a17,17,0,0,1,3.22,0,5,5,0,0,1,2.08,1.66c.13.4-.89-.46-1.63-.69A8,8,0,0,0,61,30.45Z" style="fill:#1d1d1b"/><path d="M64.4,31.28a7.47,7.47,0,0,0-2.31-.06c-.37.1-1.12,1.12-1.12,1.21a.36.36,0,0,0,.63-.06,1.21,1.21,0,0,1,.75-.44.73.73,0,0,0,0,.27,1,1,0,0,0,2,0,.85.85,0,0,0,0-.29,2.28,2.28,0,0,1,1,.46c.37.28.72.51.72.27A4.29,4.29,0,0,0,64.4,31.28Z" style="fill:#1d1d1b"/><path d="M58.49,30.42l-.16-1.24a17.64,17.64,0,0,0-3.21,0A5,5,0,0,0,53,30.84c-.12.39.89-.46,1.64-.69A8.07,8.07,0,0,1,58.49,30.42Z" style="fill:#1d1d1b"/><path d="M55.09,31.26a7.4,7.4,0,0,1,2.3-.07,3.59,3.59,0,0,1,1.13,1.23.38.38,0,0,1-.64-.08,1.21,1.21,0,0,0-.74-.43.72.72,0,0,1,0,.26,1,1,0,0,1-1,1,1,1,0,0,1-1-1,.94.94,0,0,1,.06-.3,2.7,2.7,0,0,0-1,.47c-.37.29-.72.51-.72.29A4.17,4.17,0,0,1,55.09,31.26Z" style="fill:#1d1d1b"/><path d="M32.06,72.82c0,20.58,12.48,37.29,27.91,37.29S87.86,93.4,87.86,72.82V72.3H32.06Z" style="fill:#fff;fill-rule:evenodd"/><path d="M60,35.52c-15.39,0-27.86,16.62-27.91,36.82h55.8C87.8,52.14,75.33,35.52,60,35.52Z" style="fill:#1dbbee;fill-rule:evenodd"/><path d="M67.64,63.21a55,55,0,0,0-.49-5.77c-.36-1.38.36-5.29.15-6.1-.28-1.14-1.61-5.77-6.28-6-4.85-.19-5.66,2.39-5.66,3.24s2.52,1.91,3.28,1.87a12.93,12.93,0,0,0-8.18,10.15c-.43,1.86,6.42,3.43,7.7,3.67S67.77,65.75,67.64,63.21Z" style="fill:#da2324"/><path d="M32.44,79.94s13.25-1.08,15-1.67c1.14-.37,4.48-1.59,5.61-1.94a26.14,26.14,0,0,1,4.8-.43c.41,0,1,.81,1,.81l2-1.87s2.4.06,3.1.06,4.88,2.42,6,2.7c0,0,5.92,1,7,1.41s9.68,2.33,10,2.33c0,0-2.56,9.3-2.85,9.75s-14.34-6.57-14.77-7-.3,1.76-2.1,1.76c0,0-1.3,1.45-2.66,1.1a4.43,4.43,0,0,1-2.31,1.16s.3,1.18-3.2.4c-.25,0-2.45,2.37-3.91-.1,0,0-2.15,1.2-2.65-.8,0,0-1.58,1-1.81-1.51a2,2,0,0,1-2.3-1s-11.53,3.64-13.41,4.83A57.31,57.31,0,0,1,32.44,79.94Z" style="fill:#f9c289"/><path d="M49.49,88.28c-1.3-.66-8.07.6-11.92,7.1a32.35,32.35,0,0,0,1.84,2.94,31.25,31.25,0,0,0,2.82-4.79C44.4,88.8,49.81,88.6,49.49,88.28Z" style="fill:#8b713b"/><path d="M47,104.15c-1.39-5,2.63-8.65,2.17-8.69-1.1.26-4,3.6-4.67,8.63a29.06,29.06,0,0,0,3,2.28C47.37,105.61,47.21,104.86,47,104.15Z" style="fill:#8b713b"/><path d="M43.16,102.81a24.89,24.89,0,0,0,.58-3.68c.41-5.19,5.44-7.23,5-7.43-1.27-.16-6,2.56-8.11,8.3A32.38,32.38,0,0,0,43.16,102.81Z" style="fill:#8b713b"/><path d="M70.66,92.66c-.42.19,4.59,2.24,5,7.42a26.7,26.7,0,0,0,.46,3.1,32.82,32.82,0,0,0,2.46-2.66C76.45,95.07,71.89,92.51,70.66,92.66Z" style="fill:#8b713b"/><path d="M51.82,107.74c-3-4.24-.48-9-.91-8.92-.89.57-2.34,4.15-1.66,8.6a23,23,0,0,0,3.36,1.52C52.35,108.52,52.09,108.12,51.82,107.74Z" style="fill:#8b713b"/><path d="M70.22,96.42c-.47,0,3.56,3.67,2.17,8.69-.11.43-.21.86-.31,1.31a22.78,22.78,0,0,0,2.71-2C74,99.72,71.28,96.66,70.22,96.42Z" style="fill:#8b713b"/><path d="M68.51,99.78c-.44-.12,2.09,4.67-.91,8.92,0,0,0,0,0,0a22.3,22.3,0,0,0,2.72-1.25C70.65,103.47,69.34,100.32,68.51,99.78Z" style="fill:#8b713b"/><path d="M70.68,81.84c-.7-.37-.55-.25-1.09-1-.42.93-.86.7-.86.69s-4.14-1.62-4.65-5.09c0,0-.92,2.75-2.21-.3,0,0-1.62,3.18-3.3,2.89s-1.9-.07-1.9-.07l.85.46-.94.14a4.16,4.16,0,0,0,3.56,1.56c2-.35,2.19-.91,2.36-1.06a20.61,20.61,0,0,1,4.16,3.16c0,.18-.47.4-1,.4a24.24,24.24,0,0,1-3-1.7l4.66,3.92,2-1.11.1-1h0c2.41,1.42,9.82,5.73,14.13,7.18,0,0,1-1,2.09-4.49A46.4,46.4,0,0,1,70.68,81.84Z" style="fill:#c79c71"/><path d="M60.74,83.13s2.8,2.26,3.55,2.26,1-1.15.77-1.43,1.55,2,1.55,2l-1.33.72-1.39-.25Z" style="fill:#c79c71"/><path d="M59.53,85.19l2.38,2.38s.47.74,1.78.08.68-1.17.44-1.21-.59-.7-.59-.7-1.1,1.16-1.75.81S59.53,85.19,59.53,85.19Z" style="fill:#c79c71"/><path d="M33.7,85.19s14.5-2.36,16.81-2.92a12,12,0,0,1,5.72,1.42A19.16,19.16,0,0,0,59.36,85l3.38,2.38-.57,1.13s-1.39.12-2.34.12-2.16.86-3.2.86a1.6,1.6,0,0,1-1.41-1.1,1.7,1.7,0,0,1-2.65-.8s-1.81.75-1.81-1.51c0,0-2.15.54-2.15-1.16,0,0-12,3.91-13.56,4.94A29.35,29.35,0,0,1,33.7,85.19Z" style="fill:#c79c71"/><path d="M57.68,85.74s-.9.87-1.45.87-1.51-.26-.9-1c.41-.54,1.66-.82,2-.51S57.68,85.19,57.68,85.74Z" style="fill:#f9c289"/><path d="M55,84.54s-1,.87-1.45.87-1.5-.26-.91-1c.43-.52,1.66-.8,2-.49S55,84,55,84.54Z" style="fill:#f9c289"/><path d="M67.38,63.62c-.17,1.12-4.11,1.44-8.78.7S50.26,62.08,50.45,61s4.1-1.44,8.79-.72S67.56,62.5,67.38,63.62Z" style="fill:#75160e"/><path d="M66.83,53.77c.5-1.73.83-7.46-5.28-7.84,4.12,1.11,5.15,6.87,1.32,7.82,1,0,1.76.09,2.05,1s-2.19,1.66-2.8,1.36c.93,1.37-1.92,1-3.29.74,0,0,2.15.37,2.86,1.4.91,1.15.05,2.4-1.86,2.05,0,0,5.88,1.62,6.84,2.24s-.36-7.09.16-8.82" style="fill:none"/><polygon points="60.96 60.89 58.63 60.47 58.63 75.9 60.96 74.81 60.96 60.89" style="fill:#8b713b"/><polygon points="59.99 75.34 59.33 75.34 59.33 62.58 59.99 62.77 59.99 75.34" style="fill:#bfa475"/><polygon points="65.6 94.8 61.78 94.8 61.78 90.97 57.95 90.97 57.95 94.8 54.1 94.8 54.1 98.64 57.95 98.64 57.95 109.09 61.78 109.09 61.78 98.64 65.6 98.64 65.6 94.8" style="fill:#8b713b"/><rect x="57.95" y="91.35" width="3.83" height="0.31" style="fill:#bfa475"/><polygon points="65.25 95.49 61.72 95.49 61.42 95.17 65.25 95.17 65.25 95.49" style="fill:#bfa475"/><rect x="54.34" y="95.17" width="4.23" height="0.32" style="fill:#bfa475"/><rect x="58.32" y="91.44" width="0.31" height="4.06" style="fill:#bfa475"/><polygon points="58.62 98.58 58.62 105.74 58.32 105.74 58.32 98.27 58.62 98.58" style="fill:#bfa475"/><path d="M59.3,60.57c-4.44-.72-8.17-.52-8.32.47s3.3,2.36,7.74,3.09,8.17.52,8.32-.47S63.74,61.3,59.3,60.57Z" style="fill:none;fill-rule:evenodd"/><path d="M62.61,53.78a5.41,5.41,0,0,0-.58.07Z" style="fill:#e42624"/><path d="M62.61,53.78a5.41,5.41,0,0,0-.58.07Z" style="fill:#1d1d1b"/><path d="M51.1,60s1.44-8.1,9.59-9.39c0,0-4.71-.42-4.88-1.87s2.6-3.29,5.78-2.77c1.71.28,5.56,2.35,4.94,6.15-.17,1.05-2.75,1.53-3.92,1.7,2.14-.09,3.77.16,3.65.9-.17,1-2.12,1.88-4.17,1.48,2.86,1.54,3-.6,4.44,1.37.5.69.12,1-3,0-4.82-1.47-6.27-.77-6.27-.77a17.88,17.88,0,0,1,8.74,3c.79.57.92,2.3.44,2.43h0a25.28,25.28,0,0,0-7.11-2.11c-3.46-.56-6.55-.57-8.19-.09h0m9.86,5c3.88.37,6.84,0,7-1.1.86-5.29-.33-6.28-.33-6.28a5.93,5.93,0,0,0,0-3.85,7.11,7.11,0,0,0-5.92-8.56c-4.6-.75-6.62,2-6.8,3-.34,2.08,1.54,2.42,2.62,2.38a12.51,12.51,0,0,0-7.68,10.33c-.2,1.25,3.68,2.93,8.69,3.75l.17-.48C54.28,63.4,50.81,62,51,61s3.88-1.19,8.32-.47,7.9,2.12,7.74,3.09-2.66,1.09-6,.77Z" style="fill:#1d1d1b"/><polygon points="60.96 60.89 58.63 60.47 58.63 75.9 60.96 74.81 60.96 60.89" style="fill:none;stroke:#1d1d1b;stroke-width:5.1806600000000005px;fill-rule:evenodd"/><path d="M87.08,81a77,77,0,0,1-10.91-2.6c-1.48-.72-4.55-.59-5.82-1-2.44-.75-5.11-3-6-2.78-1.13.23-3.8-.55-4.28.22A7.36,7.36,0,0,1,59.16,76a2.08,2.08,0,0,0-1.48-.52H53.62c-1,0-4.66,2.15-5.91,2.46a103,103,0,0,1-15.38,1.38s1.18,7.95,2.86,11.11a74.1,74.1,0,0,1,13.2-4.89.68.68,0,0,0,.17.29,2,2,0,0,0,1.89.72c0,.56.09,2,2,1.69,0,.55,1.23,1.63,2.85.75.2.81,1.37,1.59,3.17.49a7.83,7.83,0,0,0,.74-.5l.1.06c.86.45,3.16,1,3.76-.4A1.61,1.61,0,0,0,65,87.49s1.88.47,2.37-1.14c0,0,2.2.2,2.38-1.6C71.7,86.34,84,91.5,84,91.5c1.24-3.75,1.63-5.15,2.83-9.28.16-.55.33-1.24.22-1.24m-37.8,4.69c-.45-.2-.32-1.1.38-1.63.42-.32,1.28-.68,1.56-.4a.94.94,0,0,1-.12,1.23c-.42.43-1.11,1.13-1.82.8m2.14,1.63a1.75,1.75,0,0,1,.37-2.17c.28-.23,1.75-1.59,2.83-.89.52.34-.34,1.19-1.09,1.94s-1.89,1.35-2.11,1.12m2.09,1.06c-.7-.35-.1-1.31,1.07-2.19,1-.63,1.71-1.61,3-.67.3.42-.7,1.35-1.44,1.9s-2.13,1.19-2.6,1m3.19,1c-.4,0-1.23-.53-.93-.84A12.67,12.67,0,0,0,58,86.85c.44,0,2.07.51,1.14,1.19a6.1,6.1,0,0,1-2.45,1.28m11-4c-.46,0-5.15-3.43-5.15-3.43.18.19,1,1,1,1a38.91,38.91,0,0,1,2.84,2.93c.21.52-.87.73-1.32.73S61.5,84,61.5,84c.61.84,2.84,2.76,2.6,3.31s-.77.43-1.23.43A14,14,0,0,1,60.3,86a8.16,8.16,0,0,1,1.27,1.93c.15.53-.92.36-1.3.33a1.08,1.08,0,0,1-.29-.1,1.37,1.37,0,0,0,.26-.87c0-.45-.51-1.2-2.05-1.2,0,0,.49-2.16-2.47-1.56-.74-1-1.3-1.45-3.45-.6a1.84,1.84,0,0,0-2.76-.4,3.27,3.27,0,0,0-.94,1c-3.23.66-13.78,4.75-13.78,4.75-1.07-2-2.26-8.82-2.26-8.82a137.45,137.45,0,0,0,15.83-1.86c1.1-.35,4.06-1.61,5.21-2a15.49,15.49,0,0,1,4.3-.31s.27.18.58.41c-1.06,1.07-2.19,2.12-2.19,2.51s.64.89,2.15,1.14C61,80.77,61.2,79,62.11,79h0a3.3,3.3,0,0,0,.74.32,2.38,2.38,0,0,1,.4.24l.82.6c1.36,1,3.45,2.75,4.32,3.61s-.29,1.55-.73,1.55M84.48,90.4s-12.59-4.93-14.56-6.61c-.32-.26-.73-.57-1.18-.91a36.89,36.89,0,0,0-5.41-4.16,7.77,7.77,0,0,1-1.35-2c.52,1.91-1.1,1.74-2,2.67-.76.75-2.27.07-2.61-.28s1.41-1.3,2.9-3.14c.36-.45.42-1.06,2.13-.82s2.38.18,3,.68,4.39,2.41,5.1,2.41a20.42,20.42,0,0,1,6,1,101.92,101.92,0,0,0,10.35,2.58C87.26,81.83,85.31,88.15,84.48,90.4Z" style="fill:#1d1d1b"/><path d="M49.23,91.52c-1-.5-6.56,1.6-9,7.86.15.21.3.42.46.62,2.07-5.74,6.84-8.46,8.11-8.3.42.2-4.61,2.24-5,7.43a24.89,24.89,0,0,1-.58,3.68c.17.16.34.34.53.51a20.94,20.94,0,0,0,.46-3.31C44.6,93.26,50.07,91.91,49.23,91.52Z" style="fill:#1d1d1b"/><path d="M49.58,95.12c-1-.09-4.71,3-5.62,8.46l.56.51c.62-5,3.57-8.37,4.67-8.63.46,0-3.56,3.68-2.17,8.69.19.71.35,1.46.48,2.22.22.15.45.3.68.43-.14-.65-.28-1.31-.48-2C45.82,98.35,50.5,95.2,49.58,95.12Z" style="fill:#1d1d1b"/><path d="M51.13,98.37c-.9.24-3,3.81-2.55,8.67.22.13.44.26.67.38-.68-4.45.77-8,1.66-8.6.43-.13-2.09,4.68.91,8.92.27.38.53.78.79,1.2.27.1.56.19.83.27-.24-.35-.48-.71-.74-1.06C48.72,102.7,52,98.14,51.13,98.37Z" style="fill:#1d1d1b"/><path d="M75.67,100.08c-.42-5.18-5.43-7.23-5-7.42,1.23-.15,5.79,2.41,7.93,7.86.16-.19.32-.39.47-.59C76.5,94,71.2,92,70.18,92.46c-.84.41,4.65,1.76,5.09,8.51a18.45,18.45,0,0,0,.34,2.7l.52-.49A26.7,26.7,0,0,1,75.67,100.08Z" style="fill:#1d1d1b"/><path d="M69.84,96.08c-.93.08,3.76,3.23,1.87,9.73-.09.34-.19.68-.27,1,.22-.13.43-.27.64-.41.1-.45.2-.88.31-1.31,1.39-5-2.64-8.65-2.17-8.69,1.06.24,3.78,3.3,4.57,8l.55-.47C74.27,98.83,70.83,96,69.84,96.08Z" style="fill:#1d1d1b"/><path d="M68.27,99.33c-.89-.24,2.4,4.28-1.51,9.71l.79-.29s0,0,0,0c3-4.25.47-9,.91-8.92.83.54,2.14,3.69,1.76,7.72l.63-.35C71.08,102.73,69.13,99.57,68.27,99.33Z" style="fill:#1d1d1b"/><path d="M50,88.26c-.91-.91-8.28-.71-12.8,6.45l.38.67c3.83-6.08,9.14-7.33,11-7,.33.32-4.14.4-6.31,5.13a31.25,31.25,0,0,1-2.82,4.79l.39.55a23.12,23.12,0,0,0,2.52-4.37C45,88.32,50.65,88.92,50,88.26Z" style="fill:#1d1d1b"/><path d="M57.58,90.6v3.84H53.73V99h3.85v10.45h4.57V99H66V94.44H62.15V90.6Zm3.84.75v3.82h3.81v3.1H61.42v10.45H58.33V98.27H54.47v-3.1h3.86V91.35Z" style="fill:#1d1d1b;fill-rule:evenodd"/><path d="M62,100.46c.91.89,2.35,1.25,2,3.16.48-1.36.74-2.12,3.68-2.73-1,3.13-1.68,2.28-1.68,5.06a4.49,4.49,0,0,1-2.25,3.55c-1.64.84-6.44.86-8.37.23-3.2-1-4.53-5.86-2.22-7.7,1.31,3.8.34,1.28,1.88,2.71-.91-2.46,0-4.52,1.58-6.3,0,3.69.9,3.21,1.92,6.78,0-1.61,1.13-1.36.73-5.41,2.65,3,1.93,3.83,2.2,5C62.2,101.81,62.63,102.87,62,100.46Z" style="fill:#1d1d1b"/><path d="M62.5,101.27c.79,1.14,1.45,1.43,1.13,4.31.62-1.5.71-3.57,3.41-4.08-.68,2.4-1.54,2.2-1.54,4.53a3.76,3.76,0,0,1-2.09,3c-1.51.69-5.94.71-7.73.18-3-.85-3.71-5-2.59-6.12,1.38,3.76.39-.65,3.25,4.19-1-2-1.59-5.89-.06-8.09,0,3.08,1.8,4.38,2.4,8.53,0-2.68,1-3.85,1-6.54,2.45,2.46,1.21,4.42,1.45,5.64C61.8,104.27,63,104,62.5,101.27Z" style="fill:#e42624"/><g style="clip-path:url(#clip-path)"><path d="M58.41,110.4s-4.74-.77-4.49-4.07c0,0,1.29,1.92,2.74,1.77.28,0-.35-1.61-.12-2.83a5.19,5.19,0,0,0,2.11,3.36,3.63,3.63,0,0,0,1.76-3.87,6.54,6.54,0,0,1,.52,1.91,10.2,10.2,0,0,1,0,1.14s.48.21,1.24-1.13c.49-.89.92-1.58.92-1.58a3.72,3.72,0,0,1,.4,1.91s.74-1.89,1.7-2.37c-.62,1,.11,4.56-3.82,5.7C60.55,110.63,60.46,110.75,58.41,110.4Z" style="fill:#fcd706"/></g><path d="M31.32,72.91c0,20.9,12.79,37.9,28.51,37.9s28.51-17,28.51-37.9S75.56,35,59.83,35,31.32,52,31.32,72.91Zm1.22,0c0-20.23,12.25-36.68,27.29-36.68s27.3,16.45,27.3,36.68-12.25,36.68-27.3,36.68S32.54,93.13,32.54,72.91Z" style="fill:#1d1d1b;fill-rule:evenodd"/><path d="M45.92,40.27c-.67-.42-2.3.23-3.61.78A5.12,5.12,0,0,0,42,36.56s-1.78,1.87-1.43,3,.77,2.42.26,3a8.08,8.08,0,0,1,2.35-.39A3.82,3.82,0,0,0,45.92,40.27Z" style="fill:#287a34"/><path d="M42,36.91a5.89,5.89,0,0,1,.6,3.54c-.36,1.72-.77-1.45-.63-2.1A7.23,7.23,0,0,0,42,36.91Z" style="fill:#8bbe46"/><path d="M46.08,40.08s-1.28,2.28-3,1.91S46.08,40.08,46.08,40.08Z" style="fill:#8bbe46"/><path d="M46.88,39.92a4.42,4.42,0,0,0-2.46-.21,10.08,10.08,0,0,0-1.52.66c1.08-1.78-.88-4.78-1.13-4.76a13.16,13.16,0,0,0-1.45,1.94c-.56.76-.69,1.89,0,3.43.58,1.37-.95,3.19-.95,3.19,1.19-1.11,1.49-1.06,3.6-1.23s3.94-3,3.94-3m-3.7,2.29a8.08,8.08,0,0,0-2.35.39c.51-.6.08-1.87-.26-3s1.43-3,1.43-3a5.12,5.12,0,0,1,.31,4.49c1.31-.55,2.94-1.2,3.61-.78A3.82,3.82,0,0,1,43.18,42.21Z" style="fill:#1d1d1b"/><path d="M42.35,43.14c-.67-.43-2.3.23-3.61.77a5,5,0,0,0-.32-4.47s-1.78,1.86-1.43,3,.79,2.43.28,3a8.27,8.27,0,0,1,2.34-.39A3.86,3.86,0,0,0,42.35,43.14Z" style="fill:#287a34"/><path d="M38.4,39.77A6,6,0,0,1,39,43.31c-.38,1.72-.78-1.45-.64-2.09A7.12,7.12,0,0,0,38.4,39.77Z" style="fill:#8bbe46"/><path d="M42.51,43s-1.27,2.27-3,1.9S42.51,43,42.51,43Z" style="fill:#8bbe46"/><path d="M43.32,42.79a4.46,4.46,0,0,0-2.47-.21,11,11,0,0,0-1.51.66c1.07-1.8-.88-4.78-1.14-4.77a15.35,15.35,0,0,0-1.45,1.94c-.57.77-.68,1.91,0,3.44.59,1.37-1,3.19-1,3.19,1.2-1.11,1.51-1.06,3.6-1.23s4-3,4-3m-3.71,2.29a8.27,8.27,0,0,0-2.34.39c.51-.6.07-1.87-.28-3s1.43-3,1.43-3a5,5,0,0,1,.32,4.47c1.31-.54,2.94-1.2,3.61-.77A3.86,3.86,0,0,1,39.61,45.08Z" style="fill:#1d1d1b"/><path d="M39.78,46.21c-.7-.37-2.27.41-3.53,1.06a5.11,5.11,0,0,0-.67-4.45s-1.63,2-1.18,3.12,1,2.35.5,3a8.11,8.11,0,0,1,2.3-.58A3.79,3.79,0,0,0,39.78,46.21Z" style="fill:#287a34"/><path d="M35.6,43.17a5.94,5.94,0,0,1,.87,3.48c-.22,1.74-.89-1.39-.8-2A8.38,8.38,0,0,0,35.6,43.17Z" style="fill:#8bbe46"/><path d="M39.94,46s-1.1,2.37-2.84,2.13S39.94,46,39.94,46Z" style="fill:#8bbe46"/><path d="M40.72,45.79a4.56,4.56,0,0,0-2.48,0,9.38,9.38,0,0,0-1.45.78c.92-1.87-1.26-4.7-1.51-4.66a14.49,14.49,0,0,0-1.28,2c-.51.82-.54,2,.22,3.43.69,1.32-.69,3.26-.69,3.26,1.1-1.2,1.41-1.18,3.49-1.51s3.7-3.32,3.7-3.32M37.2,48.36a8.11,8.11,0,0,0-2.3.58c.46-.65-.07-1.88-.5-3s1.18-3.12,1.18-3.12a5.11,5.11,0,0,1,.67,4.45c1.26-.65,2.83-1.43,3.53-1.06A3.79,3.79,0,0,1,37.2,48.36Z" style="fill:#1d1d1b"/><path d="M37.69,49.42c-.75-.27-2.21.71-3.37,1.52a5.18,5.18,0,0,0-1.23-4.34s-1.36,2.2-.78,3.25,1.26,2.21.88,2.9a8.58,8.58,0,0,1,2.21-.86A3.89,3.89,0,0,0,37.69,49.42Z" style="fill:#287a34"/><path d="M33.14,47a5.9,5.9,0,0,1,1.32,3.33c0,1.75-1.05-1.26-1-1.92A8.26,8.26,0,0,0,33.14,47Z" style="fill:#8bbe46"/><path d="M37.81,49.21s-.78,2.48-2.54,2.48S37.81,49.21,37.81,49.21Z" style="fill:#8bbe46"/><path d="M38.56,48.88a4.55,4.55,0,0,0-2.46.3,10.55,10.55,0,0,0-1.34,1c.69-2-1.84-4.49-2.09-4.42a13.38,13.38,0,0,0-1,2.2c-.4.86-.28,2,.67,3.36.85,1.22-.26,3.32-.26,3.32.92-1.33,1.24-1.34,3.26-1.94s3.24-3.78,3.24-3.78m-3.16,3a8.58,8.58,0,0,0-2.21.86c.38-.69-.3-1.84-.88-2.9s.78-3.25.78-3.25a5.18,5.18,0,0,1,1.23,4.34c1.16-.81,2.62-1.79,3.37-1.52A3.86,3.86,0,0,1,35.4,51.89Z" style="fill:#1d1d1b"/><path d="M35.89,52.86c-.79-.19-2.17,1-3.26,2a5.18,5.18,0,0,0-1.78-4.26s-1.11,2.4-.4,3.4,1.56,2.09,1.27,2.85a8.18,8.18,0,0,1,2.13-1.16A4,4,0,0,0,35.89,52.86Z" style="fill:#287a34"/><path d="M31,50.91a6,6,0,0,1,1.75,3.23c.22,1.79-1.24-1.15-1.3-1.83A8.88,8.88,0,0,0,31,50.91Z" style="fill:#8bbe46"/><path d="M36,52.63s-.48,2.64-2.28,2.84S36,52.63,36,52.63Z" style="fill:#8bbe46"/><path d="M36.71,52.2a4.73,4.73,0,0,0-2.47.6A12.65,12.65,0,0,0,33,54c.47-2.1-2.42-4.35-2.66-4.25a14.51,14.51,0,0,0-.77,2.36c-.3.94-.05,2.08,1.1,3.36s.13,3.42.13,3.42c.79-1.49,1.1-1.54,3.08-2.39s2.85-4.26,2.85-4.26m-2.86,3.46a8.18,8.18,0,0,0-2.13,1.16C32,56.06,31.17,55,30.45,54s.4-3.4.4-3.4a5.18,5.18,0,0,1,1.78,4.26c1.09-1,2.47-2.15,3.26-2A3.94,3.94,0,0,1,33.85,55.66Z" style="fill:#1d1d1b"/><path d="M34.28,56.72c-.81-.06-2,1.28-3,2.39a5.19,5.19,0,0,0-2.32-4s-.78,2.52.06,3.42,1.82,1.87,1.62,2.66a8.08,8.08,0,0,1,2-1.42A4,4,0,0,0,34.28,56.72Z" style="fill:#287a34"/><path d="M29.12,55.44a6.1,6.1,0,0,1,2.17,3c.45,1.75-1.39-1-1.54-1.64A8.34,8.34,0,0,0,29.12,55.44Z" style="fill:#8bbe46"/><path d="M34.35,56.5s-.14,2.67-1.88,3.11S34.35,56.5,34.35,56.5Z" style="fill:#8bbe46"/><path d="M35,56a4.6,4.6,0,0,0-2.36.93,13.29,13.29,0,0,0-1.1,1.31c.19-2.15-3-4-3.19-3.87a13.56,13.56,0,0,0-.45,2.44c-.19,1,.22,2.07,1.51,3.18s.59,3.38.59,3.38c.58-1.58.9-1.66,2.75-2.78S35,56,35,56m-2.37,3.81a8.08,8.08,0,0,0-2,1.42c.2-.79-.78-1.75-1.62-2.66S29,55.12,29,55.12a5.16,5.16,0,0,1,2.32,4c1-1.11,2.17-2.45,3-2.39A4,4,0,0,1,32.63,59.78Z" style="fill:#1d1d1b"/><path d="M33,60.67c-.81,0-1.85,1.57-2.66,2.81a5.36,5.36,0,0,0-2.91-3.7S27,62.45,28,63.24s2.09,1.63,2,2.45A7.71,7.71,0,0,1,31.75,64,4,4,0,0,0,33,60.67Z" style="fill:#287a34"/><path d="M27.61,60.1a6.16,6.16,0,0,1,2.6,2.7c.69,1.7-1.53-.8-1.77-1.43A9.59,9.59,0,0,0,27.61,60.1Z" style="fill:#8bbe46"/><path d="M33,60.42s.24,2.73-1.45,3.41S33,60.42,33,60.42Z" style="fill:#8bbe46"/><path d="M33.61,59.81a4.73,4.73,0,0,0-2.25,1.26,11.46,11.46,0,0,0-.92,1.47c-.12-2.18-3.56-3.61-3.77-3.43a14.1,14.1,0,0,0-.13,2.51c0,1,.54,2.05,2,3,1.3.84,1.06,3.33,1.06,3.33.39-1.66.67-1.81,2.39-3.19s1.63-4.94,1.63-4.94M31.75,64A7.71,7.71,0,0,0,30,65.69c.08-.82-1-1.66-2-2.45s-.54-3.46-.54-3.46a5.38,5.38,0,0,1,2.9,3.7c.81-1.24,1.85-2.78,2.66-2.81A4,4,0,0,1,31.75,64Z" style="fill:#1d1d1b"/><path d="M32.17,64.94c-.83.13-1.68,1.76-2.35,3.08a5.33,5.33,0,0,0-3.29-3.35s-.15,2.7.9,3.37,2.27,1.4,2.27,2.22a8.83,8.83,0,0,1,1.59-1.9A4,4,0,0,0,32.17,64.94Z" style="fill:#287a34"/><path d="M26.76,65a6.11,6.11,0,0,1,2.87,2.4c.87,1.62-1.59-.63-1.92-1.24A8.34,8.34,0,0,0,26.76,65Z" style="fill:#8bbe46"/><path d="M32.17,64.69s.53,2.68-1.1,3.55S32.17,64.69,32.17,64.69Z" style="fill:#8bbe46"/><path d="M32.7,64a4.67,4.67,0,0,0-2.11,1.52,12.59,12.59,0,0,0-.76,1.55c-.35-2.16-3.92-3.2-4.11-3a13.33,13.33,0,0,0,.16,2.52c.06,1,.73,2,2.28,2.77,1.39.69,1.41,3.19,1.41,3.19.19-1.7.48-1.87,2-3.42S32.7,64,32.7,64m-1.41,4.35a8.83,8.83,0,0,0-1.59,1.9c0-.82-1.2-1.54-2.27-2.22s-.9-3.37-.9-3.37A5.33,5.33,0,0,1,29.82,68c.67-1.32,1.52-3,2.35-3.08A4,4,0,0,1,31.29,68.36Z" style="fill:#1d1d1b"/><path d="M31.7,69c-.82.17-1.57,1.86-2.16,3.21A5.37,5.37,0,0,0,26.07,69s0,2.7,1.1,3.31,2.33,1.25,2.38,2.08a9.16,9.16,0,0,1,1.48-2A4,4,0,0,0,31.7,69Z" style="fill:#287a34"/><path d="M26.3,69.3a6.25,6.25,0,0,1,3,2.21c1,1.57-1.65-.52-2-1.11A8.62,8.62,0,0,0,26.3,69.3Z" style="fill:#8bbe46"/><path d="M31.69,68.7s.69,2.65-.87,3.6S31.69,68.7,31.69,68.7Z" style="fill:#8bbe46"/><path d="M32.17,68s-1.59.71-2,1.64a9.35,9.35,0,0,0-.66,1.6c-.49-2.14-4.12-3-4.3-2.76a16.06,16.06,0,0,0,.31,2.5c.13,1,.85,1.93,2.46,2.63,1.42.6,1.6,3.09,1.6,3.09.08-1.71.35-1.89,1.81-3.54s.79-5.16.79-5.16M31,72.41a9.16,9.16,0,0,0-1.48,2c-.05-.83-1.29-1.46-2.38-2.08S26.07,69,26.07,69a5.37,5.37,0,0,1,3.47,3.15c.59-1.35,1.34-3,2.16-3.21A4,4,0,0,1,31,72.41Z" style="fill:#1d1d1b"/><path d="M31.51,73c-.81.18-1.57,1.86-2.16,3.22A5.34,5.34,0,0,0,25.88,73s0,2.7,1.1,3.32,2.34,1.25,2.38,2.07a9.06,9.06,0,0,1,1.48-2A4.06,4.06,0,0,0,31.51,73Z" style="fill:#287a34"/><path d="M26.12,73.31a6.17,6.17,0,0,1,3,2.21c1,1.56-1.64-.52-2-1.11A7.46,7.46,0,0,0,26.12,73.31Z" style="fill:#8bbe46"/><path d="M31.5,72.71s.69,2.64-.87,3.61S31.5,72.71,31.5,72.71Z" style="fill:#8bbe46"/><path d="M32,72a4.63,4.63,0,0,0-2,1.63,12,12,0,0,0-.68,1.6c-.47-2.14-4.1-3-4.29-2.76a16.33,16.33,0,0,0,.32,2.5c.12,1,.85,1.94,2.45,2.62,1.43.6,1.6,3.08,1.6,3.08.09-1.69.36-1.88,1.82-3.52S32,72,32,72m-1.14,4.41a9.06,9.06,0,0,0-1.48,2c0-.82-1.29-1.46-2.38-2.07S25.88,73,25.88,73a5.34,5.34,0,0,1,3.47,3.16c.59-1.36,1.35-3,2.16-3.22A4,4,0,0,1,30.84,76.42Z" style="fill:#1d1d1b"/><path d="M31.64,76.85c-.8.25-1.43,2-1.92,3.43A5.41,5.41,0,0,0,26,77.38s.22,2.72,1.38,3.25,2.45,1.08,2.57,1.92a8.81,8.81,0,0,1,1.34-2.15A4.07,4.07,0,0,0,31.64,76.85Z" style="fill:#287a34"/><path d="M26.21,77.65a6.16,6.16,0,0,1,3.22,2c1.11,1.51-1.69-.4-2.09-1A8.64,8.64,0,0,0,26.21,77.65Z" style="fill:#8bbe46"/><path d="M31.6,76.61s.91,2.61-.59,3.7S31.6,76.61,31.6,76.61Z" style="fill:#8bbe46"/><path d="M32,75.85s-1.54.85-1.9,1.81a10.48,10.48,0,0,0-.54,1.67c-.66-2.11-4.39-2.65-4.55-2.44a13.42,13.42,0,0,0,.51,2.51c.21,1,1,1.87,2.69,2.44,1.49.5,1.87,3,1.87,3-.06-1.73.2-1.94,1.54-3.72s.38-5.27.38-5.27m-.79,4.55a8.81,8.81,0,0,0-1.34,2.15c-.12-.84-1.43-1.38-2.57-1.92S26,77.38,26,77.38a5.41,5.41,0,0,1,3.76,2.9c.49-1.42,1.12-3.18,1.92-3.43A4.07,4.07,0,0,1,31.25,80.4Z" style="fill:#1d1d1b"/><path d="M32.22,81.08c-.79.31-1.31,2.12-1.71,3.58a5.46,5.46,0,0,0-4-2.67s.4,2.73,1.6,3.19,2.55.92,2.73,1.75a8.75,8.75,0,0,1,1.2-2.25A4.16,4.16,0,0,0,32.22,81.08Z" style="fill:#287a34"/><path d="M26.81,82.23A6.24,6.24,0,0,1,30.18,84c1.21,1.43-1.73-.3-2.18-.84A8.11,8.11,0,0,0,26.81,82.23Z" style="fill:#8bbe46"/><path d="M32.17,80.84s1.08,2.57-.35,3.78S32.17,80.84,32.17,80.84Z" style="fill:#8bbe46"/><path d="M32.56,80.05s-1.5,1-1.79,1.94a11,11,0,0,0-.44,1.73c-.8-2.09-4.61-2.38-4.75-2.17A16.3,16.3,0,0,0,26.25,84c.28,1,1.16,1.83,2.88,2.29,1.53.4,2.07,2.9,2.07,2.9-.16-1.74.09-2,1.32-3.85s0-5.33,0-5.33m-.5,4.63a9.06,9.06,0,0,0-1.2,2.25c-.18-.83-1.53-1.29-2.73-1.75S26.53,82,26.53,82a5.46,5.46,0,0,1,4,2.67c.4-1.46.92-3.27,1.71-3.58A4.16,4.16,0,0,1,32.06,84.68Z" style="fill:#1d1d1b"/><path d="M33.05,85.1c-.78.37-1.16,2.22-1.45,3.72a5.45,5.45,0,0,0-4.2-2.38s.61,2.7,1.85,3.07,2.61.74,2.85,1.56a8.63,8.63,0,0,1,1-2.34A4.15,4.15,0,0,0,33.05,85.1Z" style="fill:#287a34"/><path d="M27.7,86.66a6.36,6.36,0,0,1,3.52,1.55c1.32,1.35-1.76-.16-2.24-.68A8.74,8.74,0,0,0,27.7,86.66Z" style="fill:#8bbe46"/><path d="M33,84.86s1.28,2.5-.07,3.81S33,84.86,33,84.86Z" style="fill:#8bbe46"/><path d="M33.31,84a4.82,4.82,0,0,0-1.65,2.09,10.54,10.54,0,0,0-.31,1.75c-1-2-4.81-2.06-4.93-1.81a15.33,15.33,0,0,0,.87,2.44c.35,1,1.29,1.76,3,2.08,1.57.3,2.3,2.76,2.3,2.76-.29-1.73-.07-2,1-3.95S33.31,84,33.31,84m-.16,4.69a9,9,0,0,0-1,2.34c-.23-.82-1.62-1.19-2.85-1.56s-1.85-3.07-1.85-3.07a5.45,5.45,0,0,1,4.2,2.38c.29-1.5.67-3.35,1.45-3.72A4.15,4.15,0,0,1,33.15,88.73Z" style="fill:#1d1d1b"/><path d="M33.93,88.4c-.75.44-1,2.34-1.08,3.88a5.48,5.48,0,0,0-4.45-2s.89,2.64,2.18,2.9,2.7.46,3,1.25A9.11,9.11,0,0,1,34.4,92,4.14,4.14,0,0,0,33.93,88.4Z" style="fill:#287a34"/><path d="M28.72,90.52a6.44,6.44,0,0,1,3.7,1.18c1.45,1.23-1.78,0-2.32-.44A8.26,8.26,0,0,0,28.72,90.52Z" style="fill:#8bbe46"/><path d="M33.83,88.17s1.54,2.36.32,3.82S33.83,88.17,33.83,88.17Z" style="fill:#8bbe46"/><path d="M34.07,87.31a4.9,4.9,0,0,0-1.44,2.26,12.3,12.3,0,0,0-.13,1.8c-1.17-2-5-1.57-5.12-1.31a14.56,14.56,0,0,0,1.13,2.36C29,93.36,30,94,31.78,94.19c1.59.13,2.58,2.52,2.58,2.52-.47-1.71-.27-2,.62-4.07s-.91-5.33-.91-5.33M34.4,92a9.11,9.11,0,0,0-.8,2.45c-.32-.79-1.76-1-3-1.25s-2.18-2.9-2.18-2.9a5.48,5.48,0,0,1,4.45,2c.14-1.54.33-3.44,1.08-3.88A4.14,4.14,0,0,1,34.4,92Z" style="fill:#1d1d1b"/><path d="M35.5,92.18c-.7.53-.66,2.45-.62,4a5.58,5.58,0,0,0-4.68-1.44s1.21,2.55,2.5,2.65,2.76.14,3.19.89a8.54,8.54,0,0,1,.5-2.53A4.21,4.21,0,0,0,35.5,92.18Z" style="fill:#287a34"/><path d="M30.56,94.9a6.39,6.39,0,0,1,3.82.76c1.6,1-1.79.22-2.38-.17A8.49,8.49,0,0,0,30.56,94.9Z" style="fill:#8bbe46"/><path d="M35.37,92s1.81,2.17.77,3.78S35.37,92,35.37,92Z" style="fill:#8bbe46"/><path d="M35.52,91.07a4.91,4.91,0,0,0-1.17,2.43,12.88,12.88,0,0,0,.07,1.81c-1.4-1.8-5.2-1-5.27-.71a14.8,14.8,0,0,0,1.39,2.23c.56.89,1.67,1.45,3.48,1.39,1.61-.06,2.88,2.21,2.88,2.21-.67-1.65-.5-1.94.15-4.15s-1.53-5.21-1.53-5.21m.87,4.68a8.54,8.54,0,0,0-.5,2.53c-.43-.75-1.88-.81-3.19-.89s-2.5-2.65-2.5-2.65a5.58,5.58,0,0,1,4.68,1.44c0-1.55-.08-3.47.62-4A4.17,4.17,0,0,1,36.39,95.75Z" style="fill:#1d1d1b"/><path d="M37.29,95.53c-.61.63-.28,2.55,0,4.07a5.6,5.6,0,0,0-4.88-.68s1.6,2.33,2.9,2.22,2.77-.3,3.3.39a10,10,0,0,1,.1-2.6A4.21,4.21,0,0,0,37.29,95.53Z" style="fill:#287a34"/><path d="M32.79,99a6.49,6.49,0,0,1,3.92.14c1.75.79-1.74.52-2.38.21A9.19,9.19,0,0,0,32.79,99Z" style="fill:#8bbe46"/><path d="M37.11,95.33s2.15,1.88,1.37,3.65S37.11,95.33,37.11,95.33Z" style="fill:#8bbe46"/><path d="M37.13,94.43a4.94,4.94,0,0,0-.8,2.6,13.23,13.23,0,0,0,.37,1.78c-1.67-1.57-5.31-.14-5.34.14a15.84,15.84,0,0,0,1.74,2c.69.79,1.87,1.18,3.65.82,1.61-.31,3.22,1.75,3.22,1.75-.92-1.53-.8-1.85-.5-4.14s-2.34-4.93-2.34-4.93m1.59,4.5a10,10,0,0,0-.1,2.6c-.53-.69-2-.5-3.28-.39s-2.92-2.22-2.92-2.22a5.6,5.6,0,0,1,4.88.68c-.29-1.52-.62-3.43,0-4.07A4.21,4.21,0,0,1,38.72,98.93Z" style="fill:#1d1d1b"/><path d="M39.59,99.17c-.55.69-.05,2.57.38,4.07a5.65,5.65,0,0,0-5-.25s1.82,2.2,3.12,2,2.75-.54,3.34.11a9.41,9.41,0,0,1-.12-2.62A4.2,4.2,0,0,0,39.59,99.17Z" style="fill:#287a34"/><path d="M35.39,103.06a6.56,6.56,0,0,1,4-.2c1.83.64-1.69.67-2.38.42A8.12,8.12,0,0,0,35.39,103.06Z" style="fill:#8bbe46"/><path d="M39.41,99s2.33,1.7,1.69,3.52S39.41,99,39.41,99Z" style="fill:#8bbe46"/><path d="M39.34,98.07a5,5,0,0,0-.56,2.68,12.66,12.66,0,0,0,.52,1.75c-1.81-1.42-5.35.32-5.36.6A13.24,13.24,0,0,0,35.86,105c.76.73,2,1,3.75.5,1.58-.45,3.38,1.47,3.38,1.47-1.07-1.46-1-1.78-.87-4.12s-2.78-4.74-2.78-4.74m2,4.39a9.41,9.41,0,0,0,.12,2.62c-.59-.65-2-.34-3.34-.11S35,103,35,103a5.62,5.62,0,0,1,5,.25c-.43-1.5-.92-3.38-.38-4.07A4.2,4.2,0,0,1,41.34,102.46Z" style="fill:#1d1d1b"/><path d="M42.53,102.6c-.47.74.23,2.57.81,4a5.57,5.57,0,0,0-5,.26s2,2,3.29,1.63,2.69-.83,3.34-.24a9.39,9.39,0,0,1-.39-2.6A4.21,4.21,0,0,0,42.53,102.6Z" style="fill:#287a34"/><path d="M38.78,106.92a6.45,6.45,0,0,1,3.9-.62c1.89.44-1.62.84-2.33.67A9.14,9.14,0,0,0,38.78,106.92Z" style="fill:#8bbe46"/><path d="M42.33,102.43s2.49,1.44,2.05,3.33S42.33,102.43,42.33,102.43Z" style="fill:#8bbe46"/><path d="M42.18,101.53a4.87,4.87,0,0,0-.28,2.74,12.44,12.44,0,0,0,.7,1.68c-2-1.21-5.29.9-5.26,1.17a14.38,14.38,0,0,0,2.11,1.63c.84.66,2.07.8,3.77.11,1.53-.62,3.51,1.1,3.51,1.1-1.21-1.34-1.14-1.68-1.3-4s-3.25-4.43-3.25-4.43m2.45,4.15a9.39,9.39,0,0,0,.39,2.6c-.65-.59-2.06-.12-3.34.24s-3.29-1.63-3.29-1.63a5.57,5.57,0,0,1,5-.26c-.58-1.46-1.28-3.29-.81-4A4.21,4.21,0,0,1,44.63,105.68Z" style="fill:#1d1d1b"/><path d="M45.72,105.41c-.34.83.71,2.5,1.57,3.83a5.72,5.72,0,0,0-4.86,1.23s2.4,1.59,3.6,1,2.5-1.34,3.25-.9a9.22,9.22,0,0,1-.89-2.49A4.33,4.33,0,0,0,45.72,105.41Z" style="fill:#287a34"/><path d="M42.82,110.43a6.62,6.62,0,0,1,3.75-1.38c2,.07-1.44,1.15-2.17,1.12A9.88,9.88,0,0,0,42.82,110.43Z" style="fill:#8bbe46"/><path d="M45.48,105.28s2.76,1,2.68,2.9S45.48,105.28,45.48,105.28Z" style="fill:#8bbe46"/><path d="M45.14,104.42a5.06,5.06,0,0,0,.26,2.76,10,10,0,0,0,1,1.53c-2.18-.82-5.07,1.93-5,2.21a16.62,16.62,0,0,0,2.4,1.21c1,.47,2.23.38,3.78-.65,1.38-.9,3.69.4,3.69.4-1.46-1.08-1.46-1.43-2.07-3.71s-4.1-3.75-4.1-3.75m3.25,3.64a9.22,9.22,0,0,0,.89,2.49c-.75-.44-2.06.3-3.25.9s-3.6-1-3.6-1a5.72,5.72,0,0,1,4.86-1.23c-.86-1.33-1.91-3-1.57-3.83A4.33,4.33,0,0,1,48.39,108.06Z" style="fill:#1d1d1b"/><path d="M49.62,108c-.18.89,1.18,2.35,2.28,3.52a5.81,5.81,0,0,0-4.61,2.13s2.7,1.15,3.77.31,2.23-1.81,3.08-1.51a9.26,9.26,0,0,1-1.37-2.31A4.28,4.28,0,0,0,49.62,108Z" style="fill:#287a34"/><path d="M47.67,113.53a6.6,6.6,0,0,1,3.47-2.07c2-.3-1.21,1.42-1.94,1.51A9.18,9.18,0,0,0,47.67,113.53Z" style="fill:#8bbe46"/><path d="M49.37,107.9s2.91.43,3.21,2.39S49.37,107.9,49.37,107.9Z" style="fill:#8bbe46"/><path d="M48.86,107.11a5.28,5.28,0,0,0,.77,2.71A12.88,12.88,0,0,0,51,111.16c-2.33-.43-4.69,2.86-4.57,3.11A13.86,13.86,0,0,0,49,115c1,.3,2.29,0,3.65-1.34,1.2-1.16,3.75-.29,3.75-.29-1.66-.81-1.73-1.16-2.75-3.31s-4.79-3-4.79-3m3.91,3a9.58,9.58,0,0,0,1.37,2.31c-.85-.3-2,.68-3.08,1.51s-3.77-.31-3.77-.31a5.81,5.81,0,0,1,4.61-2.13c-1.1-1.17-2.46-2.63-2.28-3.52A4.28,4.28,0,0,1,52.77,110.13Z" style="fill:#1d1d1b"/><path d="M73.76,40.24c.69-.42,2.32.23,3.63.78a5.13,5.13,0,0,1,.31-4.49s1.77,1.87,1.43,3-.78,2.43-.27,3a7.93,7.93,0,0,0-2.34-.39A3.87,3.87,0,0,1,73.76,40.24Z" style="fill:#287a34"/><path d="M77.72,36.88a5.84,5.84,0,0,0-.61,3.53c.36,1.72.77-1.43.63-2.09A8.9,8.9,0,0,1,77.72,36.88Z" style="fill:#8bbe46"/><path d="M73.62,40.05s1.26,2.28,3,1.9S73.62,40.05,73.62,40.05Z" style="fill:#8bbe46"/><path d="M76.76,42.92c2.1.16,2.41.11,3.59,1.23,0,0-1.52-1.82-.93-3.2.64-1.54.53-2.66,0-3.44a16.29,16.29,0,0,0-1.45-1.93c-.26,0-2.22,3-1.13,4.76a10.82,10.82,0,0,0-1.53-.66,4.42,4.42,0,0,0-2.46.21s1.86,2.86,4,3m-3-2.68c.69-.42,2.32.24,3.63.78a5.13,5.13,0,0,1,.31-4.49s1.77,1.87,1.43,3-.78,2.42-.27,3a8.38,8.38,0,0,0-2.34-.39A3.87,3.87,0,0,1,73.76,40.24Z" style="fill:#1d1d1b"/><path d="M77.34,43.11c.68-.43,2.32.23,3.62.78a5.15,5.15,0,0,1,.31-4.49s1.78,1.87,1.44,3-.78,2.43-.27,3a8.08,8.08,0,0,0-2.35-.39A3.89,3.89,0,0,1,77.34,43.11Z" style="fill:#287a34"/><path d="M81.29,39.75a6,6,0,0,0-.62,3.53c.37,1.72.79-1.44.64-2.09A7.85,7.85,0,0,1,81.29,39.75Z" style="fill:#8bbe46"/><path d="M77.19,42.92s1.27,2.28,3,1.91S77.19,42.92,77.19,42.92Z" style="fill:#8bbe46"/><path d="M80.34,45.79c2.09.16,2.39.11,3.59,1.23,0,0-1.53-1.83-.94-3.2a3.42,3.42,0,0,0,0-3.44,14.22,14.22,0,0,0-1.46-1.94c-.24,0-2.2,3-1.13,4.76a14,14,0,0,0-1.51-.65,4.55,4.55,0,0,0-2.47.21s1.86,2.85,4,3m-3-2.68c.68-.43,2.32.23,3.62.78a5.15,5.15,0,0,1,.31-4.49s1.78,1.87,1.44,3-.78,2.43-.28,3a8,8,0,0,0-2.34-.39A3.89,3.89,0,0,1,77.34,43.11Z" style="fill:#1d1d1b"/><path d="M79.92,46.18c.69-.37,2.27.42,3.52,1.06a5.18,5.18,0,0,1,.67-4.45s1.63,2,1.2,3.13-1,2.34-.52,3a8.32,8.32,0,0,0-2.29-.58A3.75,3.75,0,0,1,79.92,46.18Z" style="fill:#287a34"/><path d="M84.11,43.14a6,6,0,0,0-.89,3.48c.22,1.74.89-1.39.79-2A8.49,8.49,0,0,1,84.11,43.14Z" style="fill:#8bbe46"/><path d="M79.77,46s1.09,2.38,2.82,2.13S79.77,46,79.77,46Z" style="fill:#8bbe46"/><path d="M82.68,49.09c2.08.33,2.39.3,3.49,1.5,0,0-1.39-1.94-.69-3.26.77-1.48.73-2.61.22-3.43a14.27,14.27,0,0,0-1.29-2c-.25,0-2.44,2.78-1.51,4.66a9.38,9.38,0,0,0-1.45-.78,4.49,4.49,0,0,0-2.48,0s1.63,3,3.71,3.34m-2.76-2.91c.69-.37,2.27.42,3.52,1.06a5.15,5.15,0,0,1,.67-4.45s1.63,2,1.2,3.13-1,2.34-.52,3a8.32,8.32,0,0,0-2.29-.58A3.75,3.75,0,0,1,79.92,46.18Z" style="fill:#1d1d1b"/><path d="M82,49.39c.76-.27,2.22.71,3.38,1.52a5.14,5.14,0,0,1,1.23-4.33s1.36,2.19.78,3.24-1.27,2.21-.88,2.91a8,8,0,0,0-2.22-.87A3.86,3.86,0,0,1,82,49.39Z" style="fill:#287a34"/><path d="M86.56,46.92a5.9,5.9,0,0,0-1.32,3.33c0,1.76,1.05-1.25,1-1.91A8.44,8.44,0,0,1,86.56,46.92Z" style="fill:#8bbe46"/><path d="M81.89,49.18s.78,2.5,2.52,2.48S81.89,49.18,81.89,49.18Z" style="fill:#8bbe46"/><path d="M84.38,52.63c2,.6,2.33.61,3.26,1.95,0,0-1.11-2.11-.26-3.33s1.07-2.49.66-3.37a13.34,13.34,0,0,0-1-2.18c-.23-.08-2.77,2.44-2.08,4.41a13.84,13.84,0,0,0-1.35-1,4.52,4.52,0,0,0-2.45-.3s1.23,3.18,3.24,3.78M82,49.39c.76-.27,2.22.71,3.38,1.52a5.14,5.14,0,0,1,1.23-4.33s1.36,2.19.78,3.24-1.27,2.21-.88,2.91a8,8,0,0,0-2.22-.87A3.84,3.84,0,0,1,82,49.39Z" style="fill:#1d1d1b"/><path d="M83.81,52.82c.78-.17,2.16,1,3.25,2a5.29,5.29,0,0,1,1.78-4.26s1.12,2.41.41,3.41S87.69,56,88,56.79a8.41,8.41,0,0,0-2.15-1.16A4,4,0,0,1,83.81,52.82Z" style="fill:#287a34"/><path d="M88.75,50.88A6.16,6.16,0,0,0,87,54.11c-.21,1.8,1.25-1.16,1.31-1.83A7.64,7.64,0,0,1,88.75,50.88Z" style="fill:#8bbe46"/><path d="M83.71,52.6s.49,2.64,2.28,2.84S83.71,52.6,83.71,52.6Z" style="fill:#8bbe46"/><path d="M85.83,56.42c2,.86,2.3.92,3.08,2.4,0,0-.87-2.29.14-3.42S90.44,53,90.15,52a16.79,16.79,0,0,0-.76-2.36c-.25-.1-3.14,2.15-2.68,4.25a12.2,12.2,0,0,0-1.26-1.15A4.66,4.66,0,0,0,83,52.17s.86,3.4,2.84,4.25m-2-3.6c.78-.17,2.16,1,3.25,2a5.29,5.29,0,0,1,1.78-4.26s1.12,2.41.4,3.41S87.69,56,88,56.79a8.41,8.41,0,0,0-2.15-1.16A4,4,0,0,1,83.81,52.82Z" style="fill:#1d1d1b"/><path d="M85.41,56.7c.81-.08,2,1.27,3,2.38a5.24,5.24,0,0,1,2.34-4s.78,2.54-.06,3.43S88.83,60.38,89,61.17a8.27,8.27,0,0,0-2-1.43A4,4,0,0,1,85.41,56.7Z" style="fill:#287a34"/><path d="M90.57,55.41a6.1,6.1,0,0,0-2.17,3c-.43,1.74,1.38-1,1.54-1.64A8.34,8.34,0,0,1,90.57,55.41Z" style="fill:#8bbe46"/><path d="M85.35,56.46s.13,2.67,1.88,3.12S85.35,56.46,85.35,56.46Z" style="fill:#8bbe46"/><path d="M87,60.53c1.85,1.11,2.16,1.21,2.76,2.77,0,0-.59-2.38.57-3.36s1.7-2.22,1.52-3.19a13.84,13.84,0,0,0-.44-2.44c-.22-.14-3.39,1.73-3.21,3.86a12.38,12.38,0,0,0-1.1-1.3,4.7,4.7,0,0,0-2.37-.94s.42,3.49,2.27,4.6M85.41,56.7c.81-.08,2,1.28,3,2.38a5.26,5.26,0,0,1,2.34-4s.78,2.54-.06,3.43S88.83,60.38,89,61.17a8.27,8.27,0,0,0-2-1.43A4,4,0,0,1,85.41,56.7Z" style="fill:#1d1d1b"/><path d="M86.71,60.64c.83,0,1.85,1.57,2.67,2.81a5.28,5.28,0,0,1,2.9-3.69s.44,2.67-.54,3.45-2.09,1.63-2,2.45A8.38,8.38,0,0,0,87.94,64,4.07,4.07,0,0,1,86.71,60.64Z" style="fill:#287a34"/><path d="M92.09,60.08a6.16,6.16,0,0,0-2.61,2.69c-.69,1.7,1.54-.8,1.78-1.44A8.17,8.17,0,0,1,92.09,60.08Z" style="fill:#8bbe46"/><path d="M86.68,60.4s-.24,2.72,1.46,3.4S86.68,60.4,86.68,60.4Z" style="fill:#8bbe46"/><path d="M87.72,64.73c1.71,1.37,2,1.51,2.39,3.18,0,0-.25-2.48,1-3.32,1.46-1,2-2,2-3A13.79,13.79,0,0,0,93,59.08c-.21-.17-3.65,1.26-3.77,3.44a11.18,11.18,0,0,0-.93-1.47,4.61,4.61,0,0,0-2.26-1.27s-.06,3.56,1.65,5m-1-4.09c.83,0,1.85,1.57,2.67,2.81a5.28,5.28,0,0,1,2.9-3.69s.44,2.67-.54,3.45-2.09,1.63-2,2.45A8.38,8.38,0,0,0,87.94,64,4.07,4.07,0,0,1,86.71,60.64Z" style="fill:#1d1d1b"/><path d="M87.53,64.91c.81.13,1.68,1.76,2.34,3.08a5.35,5.35,0,0,1,3.29-3.35s.15,2.7-.9,3.37S90,69.4,90,70.23a8.09,8.09,0,0,0-1.6-1.9A4,4,0,0,1,87.53,64.91Z" style="fill:#287a34"/><path d="M92.94,64.92a6.19,6.19,0,0,0-2.88,2.41c-.87,1.61,1.6-.63,1.92-1.24A7.79,7.79,0,0,1,92.94,64.92Z" style="fill:#8bbe46"/><path d="M87.53,64.67s-.54,2.67,1.09,3.54S87.53,64.67,87.53,64.67Z" style="fill:#8bbe46"/><path d="M88.09,69.08c1.56,1.56,1.84,1.73,2,3.42,0,0,0-2.49,1.41-3.18,1.55-.78,2.22-1.77,2.29-2.77A13.09,13.09,0,0,0,94,64c-.18-.19-3.75.87-4.11,3a12.93,12.93,0,0,0-.76-1.56A4.8,4.8,0,0,0,87,64s-.45,3.54,1.1,5.1m-.56-4.17c.81.13,1.68,1.76,2.34,3.08a5.35,5.35,0,0,1,3.29-3.35s.15,2.7-.9,3.37S90,69.4,90,70.23a8.09,8.09,0,0,0-1.6-1.9A4,4,0,0,1,87.53,64.91Z" style="fill:#1d1d1b"/><path d="M88,68.93c.81.16,1.57,1.86,2.16,3.22A5.35,5.35,0,0,1,93.64,69s0,2.7-1.11,3.31-2.34,1.25-2.38,2.08a8.91,8.91,0,0,0-1.49-2A4,4,0,0,1,88,68.93Z" style="fill:#287a34"/><path d="M93.4,69.27a6.07,6.07,0,0,0-3,2.22c-1,1.55,1.64-.53,2-1.11A8.67,8.67,0,0,1,93.4,69.27Z" style="fill:#8bbe46"/><path d="M88,68.68s-.69,2.64.87,3.59S88,68.68,88,68.68Z" style="fill:#8bbe46"/><path d="M88.31,73.12C89.76,74.77,90,75,90.13,76.66c0,0,.18-2.49,1.6-3.09,1.6-.69,2.32-1.63,2.45-2.63a15.24,15.24,0,0,0,.32-2.5c-.19-.2-3.82.63-4.3,2.76a11.15,11.15,0,0,0-.65-1.6,4.84,4.84,0,0,0-2-1.63s-.67,3.5.78,5.15M88,68.93c.81.17,1.57,1.86,2.16,3.22A5.33,5.33,0,0,1,93.64,69s0,2.7-1.11,3.31-2.34,1.25-2.38,2.08a8.91,8.91,0,0,0-1.49-2A4,4,0,0,1,88,68.93Z" style="fill:#1d1d1b"/><path d="M88.19,72.93c.81.17,1.56,1.87,2.15,3.22A5.31,5.31,0,0,1,93.82,73s0,2.69-1.1,3.3-2.34,1.26-2.4,2.08a8.47,8.47,0,0,0-1.47-2A4,4,0,0,1,88.19,72.93Z" style="fill:#287a34"/><path d="M93.58,73.27a6.17,6.17,0,0,0-3,2.22c-1,1.57,1.63-.52,2-1.11A7.14,7.14,0,0,1,93.58,73.27Z" style="fill:#8bbe46"/><path d="M88.21,72.69s-.7,2.63.86,3.59S88.21,72.69,88.21,72.69Z" style="fill:#8bbe46"/><path d="M88.49,77.13C90,78.76,90.23,79,90.31,80.66c0,0,.19-2.48,1.6-3.09,1.6-.69,2.32-1.62,2.46-2.62a12.7,12.7,0,0,0,.3-2.51c-.16-.19-3.81.64-4.29,2.76a9.83,9.83,0,0,0-.66-1.6c-.42-.93-2-1.63-2-1.63s-.67,3.5.78,5.16m-.3-4.2c.81.17,1.56,1.87,2.15,3.22A5.31,5.31,0,0,1,93.82,73s0,2.69-1.1,3.3-2.34,1.26-2.4,2.08a8.47,8.47,0,0,0-1.47-2A4,4,0,0,1,88.19,72.93Z" style="fill:#1d1d1b"/><path d="M88.05,76.83c.8.24,1.43,2,1.92,3.43a5.43,5.43,0,0,1,3.76-2.92s-.22,2.73-1.38,3.27-2.45,1.06-2.57,1.89a8.87,8.87,0,0,0-1.32-2.12A4,4,0,0,1,88.05,76.83Z" style="fill:#287a34"/><path d="M93.48,77.61a6.33,6.33,0,0,0-3.22,2c-1.1,1.5,1.69-.4,2.09-1A8.94,8.94,0,0,1,93.48,77.61Z" style="fill:#8bbe46"/><path d="M88.09,76.58s-.91,2.61.59,3.7S88.09,76.58,88.09,76.58Z" style="fill:#8bbe46"/><path d="M88,81.08c1.34,1.79,1.59,2,1.54,3.72,0,0,.38-2.49,1.86-3,1.68-.56,2.49-1.45,2.69-2.44a13.88,13.88,0,0,0,.52-2.51c-.17-.21-3.9.34-4.56,2.44a10.93,10.93,0,0,0-.54-1.67c-.35-1-1.89-1.8-1.89-1.8s-1,3.47.38,5.25m0-4.25c.8.24,1.43,2,1.92,3.43a5.43,5.43,0,0,1,3.76-2.92s-.22,2.73-1.38,3.27-2.45,1.06-2.57,1.89a8.87,8.87,0,0,0-1.32-2.12A4,4,0,0,1,88.05,76.83Z" style="fill:#1d1d1b"/><path d="M87.47,81.05c.79.31,1.32,2.13,1.71,3.58a5.49,5.49,0,0,1,4-2.68s-.41,2.73-1.6,3.2-2.55.92-2.73,1.75a8.94,8.94,0,0,0-1.2-2.24A4.18,4.18,0,0,1,87.47,81.05Z" style="fill:#287a34"/><path d="M92.89,82.2A6.28,6.28,0,0,0,89.51,84c-1.21,1.43,1.74-.3,2.18-.84A7.43,7.43,0,0,1,92.89,82.2Z" style="fill:#8bbe46"/><path d="M87.53,80.8s-1.09,2.57.35,3.78S87.53,80.8,87.53,80.8Z" style="fill:#8bbe46"/><path d="M87.17,85.34c1.24,1.89,1.48,2.12,1.32,3.85,0,0,.55-2.49,2.08-2.9,1.71-.44,2.59-1.29,2.87-2.28a15.78,15.78,0,0,0,.68-2.48c-.15-.24-4,.07-4.76,2.16A11.18,11.18,0,0,0,88.93,82c-.3-1-1.79-2-1.79-2s-1.2,3.44,0,5.32m.3-4.29c.79.31,1.32,2.13,1.71,3.58a5.49,5.49,0,0,1,4-2.68s-.41,2.73-1.6,3.2-2.55.92-2.74,1.75a8.64,8.64,0,0,0-1.19-2.24A4.17,4.17,0,0,1,87.47,81.05Z" style="fill:#1d1d1b"/><path d="M86.64,85.07c.78.36,1.16,2.22,1.46,3.72a5.47,5.47,0,0,1,4.19-2.39s-.61,2.71-1.85,3.08-2.63.73-2.85,1.56a8.93,8.93,0,0,0-1-2.34A4.19,4.19,0,0,1,86.64,85.07Z" style="fill:#287a34"/><path d="M92,86.63a6.31,6.31,0,0,0-3.51,1.55c-1.32,1.35,1.76-.17,2.25-.67A8.09,8.09,0,0,1,92,86.63Z" style="fill:#8bbe46"/><path d="M86.71,84.83s-1.27,2.5.08,3.81S86.71,84.83,86.71,84.83Z" style="fill:#8bbe46"/><path d="M86,89.35c1.1,2,1.33,2.24,1,4,0,0,.72-2.46,2.29-2.75,1.77-.34,2.7-1.11,3-2.09A13.46,13.46,0,0,0,93.27,86c-.13-.24-4-.22-4.93,1.81A11.08,11.08,0,0,0,88,86.1,4.89,4.89,0,0,0,86.37,84s-1.44,3.37-.34,5.34m.61-4.28c.78.36,1.16,2.22,1.46,3.72a5.47,5.47,0,0,1,4.19-2.39s-.61,2.71-1.85,3.08-2.63.73-2.85,1.56a8.93,8.93,0,0,0-1-2.34A4.19,4.19,0,0,1,86.64,85.07Z" style="fill:#1d1d1b"/><path d="M85.78,88.37c.73.44.93,2.35,1.06,3.88a5.5,5.5,0,0,1,4.46-2s-.9,2.64-2.18,2.9-2.7.45-3,1.25A8.86,8.86,0,0,0,85.29,92,4.2,4.2,0,0,1,85.78,88.37Z" style="fill:#287a34"/><path d="M91,90.49a6.33,6.33,0,0,0-3.69,1.18c-1.46,1.22,1.78,0,2.32-.44A7.89,7.89,0,0,1,91,90.49Z" style="fill:#8bbe46"/><path d="M85.86,88.13S84.32,90.5,85.55,92,85.86,88.13,85.86,88.13Z" style="fill:#8bbe46"/><path d="M84.71,92.6c.9,2.1,1.1,2.37.63,4.07,0,0,1-2.38,2.58-2.51,1.8-.15,2.82-.83,3.27-1.77A16.08,16.08,0,0,0,92.32,90c-.12-.25-4-.63-5.13,1.3a12.27,12.27,0,0,0-.13-1.79,5,5,0,0,0-1.44-2.27s-1.8,3.23-.91,5.33m1.07-4.23c.73.44.93,2.35,1.06,3.88a5.5,5.5,0,0,1,4.46-2s-.9,2.64-2.18,2.9-2.7.45-3,1.25A8.86,8.86,0,0,0,85.29,92,4.2,4.2,0,0,1,85.78,88.37Z" style="fill:#1d1d1b"/><path d="M84.2,92.15c.69.53.66,2.45.62,4a5.52,5.52,0,0,1,4.68-1.43S88.29,97.26,87,97.35s-2.75.14-3.17.91a9,9,0,0,0-.52-2.54A4.3,4.3,0,0,1,84.2,92.15Z" style="fill:#287a34"/><path d="M89.15,94.88a6.38,6.38,0,0,0-3.83.75c-1.6,1,1.78.23,2.38-.17A8.23,8.23,0,0,1,89.15,94.88Z" style="fill:#8bbe46"/><path d="M84.32,91.93s-1.81,2.18-.76,3.78S84.32,91.93,84.32,91.93Z" style="fill:#8bbe46"/><path d="M82.64,96.25c.65,2.2.83,2.5.15,4.15,0,0,1.28-2.26,2.89-2.21,1.82.07,2.91-.5,3.47-1.38a13.8,13.8,0,0,0,1.39-2.24c-.07-.26-3.87-1.1-5.27.7a12.68,12.68,0,0,0,.08-1.8A4.83,4.83,0,0,0,84.18,91S82,94,82.64,96.25m1.56-4.1c.69.53.66,2.45.62,4a5.52,5.52,0,0,1,4.68-1.43S88.29,97.26,87,97.35s-2.75.14-3.17.91a9,9,0,0,0-.52-2.54A4.3,4.3,0,0,1,84.2,92.15Z" style="fill:#1d1d1b"/><path d="M82.43,95.51c.59.63.25,2.53,0,4.06a5.61,5.61,0,0,1,4.88-.69s-1.6,2.34-2.91,2.24-2.76-.31-3.29.39A9.1,9.1,0,0,0,81,98.9,4.25,4.25,0,0,1,82.43,95.51Z" style="fill:#287a34"/><path d="M86.9,99a6.42,6.42,0,0,0-3.91.15c-1.76.79,1.72.51,2.38.2A8.38,8.38,0,0,1,86.9,99Z" style="fill:#8bbe46"/><path d="M82.59,95.3s-2.16,1.88-1.37,3.64S82.59,95.3,82.59,95.3Z" style="fill:#8bbe46"/><path d="M80.23,99.33c.3,2.29.43,2.61-.5,4.14,0,0,1.61-2.06,3.21-1.74,1.78.35,3,0,3.65-.82a14.16,14.16,0,0,0,1.74-2c0-.28-3.66-1.7-5.34-.14A12.66,12.66,0,0,0,83.36,97a5,5,0,0,0-.79-2.6S79.94,97,80.23,99.33m2.2-3.82c.59.63.25,2.53,0,4.06a5.61,5.61,0,0,1,4.88-.69s-1.61,2.34-2.91,2.24-2.76-.31-3.29.39A9.1,9.1,0,0,0,81,98.9,4.25,4.25,0,0,1,82.43,95.51Z" style="fill:#1d1d1b"/><path d="M80.11,99.14c.55.69,0,2.57-.37,4.08a5.59,5.59,0,0,1,4.94-.26s-1.8,2.21-3.11,2-2.74-.54-3.33.11a9.4,9.4,0,0,0,.11-2.63A4.28,4.28,0,0,1,80.11,99.14Z" style="fill:#287a34"/><path d="M84.31,103a6.55,6.55,0,0,0-4-.21c-1.83.64,1.69.68,2.38.42A9.74,9.74,0,0,1,84.31,103Z" style="fill:#8bbe46"/><path d="M80.28,99s-2.31,1.7-1.68,3.52S80.28,99,80.28,99Z" style="fill:#8bbe46"/><path d="M77.58,102.78c.09,2.33.19,2.67-.87,4.12,0,0,1.8-1.92,3.36-1.46,1.78.51,3,.22,3.76-.52a14.3,14.3,0,0,0,1.93-1.84c0-.28-3.54-2-5.35-.61a14.56,14.56,0,0,0,.51-1.75A5,5,0,0,0,80.35,98s-2.88,2.42-2.77,4.74m2.53-3.64c.55.69,0,2.57-.37,4.08a5.59,5.59,0,0,1,4.94-.26s-1.8,2.21-3.11,2-2.74-.54-3.33.11a9.4,9.4,0,0,0,.11-2.63A4.28,4.28,0,0,1,80.11,99.14Z" style="fill:#1d1d1b"/><path d="M77.16,102.57c.47.75-.24,2.57-.8,4a5.59,5.59,0,0,1,5,.28s-2,2-3.3,1.62-2.68-.82-3.34-.24a9.11,9.11,0,0,0,.4-2.61A4.24,4.24,0,0,1,77.16,102.57Z" style="fill:#287a34"/><path d="M80.92,106.88a6.46,6.46,0,0,0-3.89-.61c-1.89.44,1.6.84,2.31.67A8.54,8.54,0,0,1,80.92,106.88Z" style="fill:#8bbe46"/><path d="M77.36,102.41s-2.49,1.44-2,3.32S77.36,102.41,77.36,102.41Z" style="fill:#8bbe46"/><path d="M74.25,105.93c-.14,2.33-.09,2.66-1.28,4,0,0,2-1.72,3.5-1.1,1.7.7,3,.54,3.79-.11a16.16,16.16,0,0,0,2.11-1.63c0-.27-3.31-2.4-5.27-1.17a10.39,10.39,0,0,0,.71-1.69,5,5,0,0,0-.29-2.73s-3.11,2.1-3.27,4.43m2.91-3.36c.47.75-.24,2.57-.8,4a5.63,5.63,0,0,1,5,.27s-2,2-3.3,1.63-2.68-.82-3.34-.24a9.11,9.11,0,0,0,.4-2.61A4.24,4.24,0,0,1,77.16,102.57Z" style="fill:#1d1d1b"/><path d="M74,105.38c.32.83-.73,2.5-1.58,3.83a5.66,5.66,0,0,1,4.86,1.24s-2.42,1.59-3.6,1-2.49-1.34-3.26-.9a9.11,9.11,0,0,0,.9-2.5A4.29,4.29,0,0,1,74,105.38Z" style="fill:#287a34"/><path d="M76.88,110.4A6.63,6.63,0,0,0,73.12,109c-2,.07,1.45,1.15,2.17,1.11A10.77,10.77,0,0,1,76.88,110.4Z" style="fill:#8bbe46"/><path d="M74.21,105.25s-2.74,1-2.67,2.9S74.21,105.25,74.21,105.25Z" style="fill:#8bbe46"/><path d="M70.45,108.15c-.6,2.27-.61,2.61-2.07,3.7,0,0,2.31-1.31,3.7-.4,1.55,1,2.81,1.12,3.78.64a15,15,0,0,0,2.41-1.21c.06-.27-2.82-3-5-2.19a16,16,0,0,0,1-1.54,5.16,5.16,0,0,0,.26-2.76s-3.51,1.47-4.11,3.76M74,105.38c.32.82-.73,2.5-1.58,3.83a5.66,5.66,0,0,1,4.86,1.24s-2.42,1.59-3.6,1-2.49-1.34-3.26-.9a9.11,9.11,0,0,0,.9-2.5A4.29,4.29,0,0,1,74,105.38Z" style="fill:#1d1d1b"/><path d="M70.08,108c.16.89-1.19,2.35-2.29,3.52a5.77,5.77,0,0,1,4.62,2.15s-2.7,1.12-3.77.29-2.23-1.81-3.08-1.51a9.27,9.27,0,0,0,1.35-2.31A4.34,4.34,0,0,1,70.08,108Z" style="fill:#287a34"/><path d="M72,113.5a6.67,6.67,0,0,0-3.48-2.08c-2-.29,1.21,1.42,2,1.53A8.65,8.65,0,0,1,72,113.5Z" style="fill:#8bbe46"/><path d="M70.33,107.88s-2.92.42-3.2,2.38S70.33,107.88,70.33,107.88Z" style="fill:#8bbe46"/><path d="M66.05,110.05c-1,2.16-1.1,2.5-2.76,3.32,0,0,2.55-.88,3.76.27,1.36,1.32,2.6,1.66,3.64,1.35a15.9,15.9,0,0,0,2.62-.74c.12-.27-2.23-3.55-4.55-3.12a15.75,15.75,0,0,0,1.31-1.35,5.18,5.18,0,0,0,.76-2.7s-3.76.82-4.78,3m4-2.09c.16.89-1.19,2.35-2.29,3.52a5.8,5.8,0,0,1,4.62,2.14s-2.7,1.13-3.77.3-2.23-1.81-3.08-1.51a9.27,9.27,0,0,0,1.35-2.31A4.34,4.34,0,0,1,70.08,108Z" style="fill:#1d1d1b"/><path d="M55.61,113a53.69,53.69,0,0,0,10.45,2.36l.23,1.34S55,113.8,53.49,113.17C53,113,52.68,112.52,55.61,113Z" style="fill:#1d1d1b"/><path d="M64.56,112.6a54.36,54.36,0,0,1-11.09,2.72l-.1,1.27s11.18-3,12.71-3.48C66.43,113,67.48,112.16,64.56,112.6Z" style="fill:#1d1d1b"/><path d="M61.24,114.18s2.51,3.46,5,2.85c-.55,1.75-2.17,2.89-3,2.45-1.07-.57-2.87-2.27-2.72-3.68S61.24,114.18,61.24,114.18Z" style="fill:#1dbbee"/><path d="M65.66,118.24a10.69,10.69,0,0,1-4.88-3.39,3.71,3.71,0,0,0-.2.8,13,13,0,0,0,4.2,3.48A3.55,3.55,0,0,0,65.66,118.24Z" style="fill:#fff"/><path d="M58.48,114.2s-2.51,3.45-5,2.84c.54,1.75,2.15,2.88,3,2.44,1.07-.57,2.88-2.27,2.72-3.67S58.48,114.2,58.48,114.2Z" style="fill:#1dbbee"/><path d="M54,118.25a10.75,10.75,0,0,0,4.89-3.39,3.6,3.6,0,0,1,.2.79,13.37,13.37,0,0,1-4.21,3.51A5.1,5.1,0,0,1,54,118.25Z" style="fill:#fff"/><path d="M59.87,110.64c-1.68,0-6.1.09-4.13,2.44a9,9,0,0,0,4.13,2.34h0a8.53,8.53,0,0,0,4-2.32C65.78,110.76,61.54,110.64,59.87,110.64Z" style="fill:#1dbbee"/><path d="M59.79,111.18c-.81,0-2.48.65-1.51,2.21a4,4,0,0,0,1.56,1.54h0a4,4,0,0,0,1.44-1.52C62.25,111.84,60.62,111.18,59.79,111.18Z" style="fill:#fff"/><path d="M59.71,113.33h0c-1.46,0-2.35.72-1.82,1.52.64,1,1.25,1.37,1.81,1.38h0c.55,0,1.17-.42,1.81-1.38C62.07,114.05,61.19,113.33,59.71,113.33Z" style="fill:#1dbbee"/><path d="M59.71,114h0c-.75,0-1.19.38-.92.8s.63.72.92.73h0c.28,0,.6-.22.93-.73S60.46,114,59.71,114Z" style="fill:#fff"/><path d="M57.51,111.26a2.06,2.06,0,0,0,.33,2.72C57.07,113.44,54.49,111.83,57.51,111.26Z" style="fill:#fff"/><path d="M61.94,111.26A2.06,2.06,0,0,1,61.6,114C62.37,113.44,65,111.83,61.94,111.26Z" style="fill:#fff"/><path d="M8.88,78.17a6.91,6.91,0,0,1-.48-2.24,3.88,3.88,0,0,1,1-3,6.68,6.68,0,0,1,4.6-1.57c4.37-.09,6.08,2.24,6.14,4.5a3.94,3.94,0,0,1-.29,1.8l-1.58-.32A2.81,2.81,0,0,0,18.55,76c0-1.49-1.18-2.83-4.46-2.74C11,73.38,9.93,74.61,10,75.84a1.44,1.44,0,0,0,.1.6l3.23-.1,0-1.23,1.51,0L14.86,78Z" style="fill:#1d1d1b"/><path d="M16,88.09c-4.3.74-6.26-.47-6.6-2.49-.4-2.27,1.82-3.82,5.27-4.41s6.05.29,6.45,2.59S19.06,87.57,16,88.09Zm-1-5c-2.49.43-4.19,1.21-4,2.36s2.31,1.19,4.6.8c2.07-.36,4.14-1.06,3.94-2.28S17.36,82.66,15,83.07Z" style="fill:#1d1d1b"/><path d="M22.06,89.75a10.18,10.18,0,0,1,.93,2.1,4,4,0,0,1,.09,2.86,2.64,2.64,0,0,1-1.7,1.43,2.69,2.69,0,0,1-2.95-.81h-.05a2.78,2.78,0,0,1-2.06,2.87,3.25,3.25,0,0,1-2.43-.08,4.44,4.44,0,0,1-2.15-2.95,13.16,13.16,0,0,1-.49-1.87Zm-8.95,4.87a2.74,2.74,0,0,0,.14.57,1.82,1.82,0,0,0,2.5,1.22,1.91,1.91,0,0,0,1.32-2.53l-.17-.51Zm5.09-1.68.17.51a1.74,1.74,0,0,0,2.25,1,1.48,1.48,0,0,0,1.1-2,2.28,2.28,0,0,0-.27-.6Z" style="fill:#1d1d1b"/><path d="M26.14,99.83l-10.47,5-.79-1.67,10.47-5Z" style="fill:#1d1d1b"/><path d="M24.77,110l-1.46-2.33-3.12,2,1.67,2.65-1.34.85L17.86,109l9.8-6.18,2.54,4-1.35.85-1.56-2.47-2.69,1.69,1.47,2.33Z" style="fill:#1d1d1b"/><path d="M31.72,109.15a10.1,10.1,0,0,1,1.62,1.49,4,4,0,0,1,1.29,2.7,3,3,0,0,1-1.17,2.22,3,3,0,0,1-3.39.59l0,0c.33.8,0,1.63-.83,2.72a17.09,17.09,0,0,0-1.8,2.56L26.14,120a17.48,17.48,0,0,1,1.71-2.31c1-1.17,1-1.82.44-2.51l-.28-.3-3.59,3.21-1.21-1.36ZM29.06,114l.32.35a1.81,1.81,0,0,0,2.71,0c.85-.75,1.12-1.61.34-2.51a2.05,2.05,0,0,0-.46-.41Z" style="fill:#1d1d1b"/><path d="M30.86,124.57l6.83-9.36,1.36,1-1.34,5.15c-.28,1.09-.69,2.64-1.06,3.76l0,0c.79-1.26,1.76-2.76,3-4.44l1.92-2.64,1.31,1-6.83,9.36-1.36-1L36,122.23a32.07,32.07,0,0,1,1.14-3.72l0,0c-.72,1.13-1.64,2.48-3.06,4.42l-1.9,2.61Z" style="fill:#1d1d1b"/><path d="M49.26,128c-1.62,4.06-3.68,5.08-5.58,4.32-2.14-.85-2.3-3.55-1-6.8s3.41-5,5.58-4.13S50.42,125.12,49.26,128Zm-4.81-1.76c-.94,2.35-1.16,4.2-.08,4.64s2.23-1.35,3.09-3.51c.78-1.94,1.26-4.08.12-4.54S45.35,124,44.45,126.24Z" style="fill:#1d1d1b"/><path d="M57.43,124a9.89,9.89,0,0,1,2.14-.27,4,4,0,0,1,2.91.82,3.34,3.34,0,0,1,1,2.46,3.74,3.74,0,0,1-.81,2.59,3.6,3.6,0,0,1-2.74,1.26h-.52l.09,4.52-1.82,0Zm1.92,5.35a2.16,2.16,0,0,0,.45,0c1.21,0,1.86-.86,1.83-2.18,0-1.08-.48-2-1.72-2a1.76,1.76,0,0,0-.63.1Z" style="fill:#1d1d1b"/><path d="M65.6,123.55a9.61,9.61,0,0,1,2.06-.8,4.06,4.06,0,0,1,3,0,3.39,3.39,0,0,1,.49,5.34v0c.88.06,1.48.7,2.08,2a16.65,16.65,0,0,0,1.48,2.74l-1.84.51a15.89,15.89,0,0,1-1.31-2.56c-.62-1.4-1.16-1.75-2-1.51l-.4.11,1.27,4.64-1.75.49Zm3.13,4.52.46-.12a1.83,1.83,0,0,0,1.18-2.45c-.3-1.09-1-1.72-2.1-1.42a2.5,2.5,0,0,0-.58.23Z" style="fill:#1d1d1b"/><path d="M81.92,122.51c2.17,3.79,1.7,6-.07,7.06-2,1.14-4.22-.4-6-3.45s-1.8-5.77.23-6.94S80.38,119.82,81.92,122.51Zm-4.37,2.68c1.26,2.2,2.57,3.52,3.59,2.94s.32-2.58-.83-4.59c-1-1.82-2.42-3.53-3.49-2.92S76.35,123.09,77.55,125.19Z" style="fill:#1d1d1b"/><path d="M90.05,123.53l-9.74-6.8,1.49-1.35L86,118.56c1,.79,2.27,1.72,3.35,2.65l0,0c-.84-1.16-1.65-2.43-2.37-3.58l-2.8-4.43,1.47-1.35,5.85,10.35Z" style="fill:#1d1d1b"/><path d="M88.24,108.59l9,7.27-1.15,1.43-9-7.26Z" style="fill:#1d1d1b"/><path d="M100.18,111.93l-10-5.87L91,104.6l5.27.82c1.11.18,2.69.44,3.84.69l0,0c-1.33-.66-2.92-1.48-4.72-2.53l-2.81-1.66.82-1.39,10,5.87-.85,1.46-5.25-.8a33.57,33.57,0,0,1-3.82-.77v0c1.19.6,2.63,1.39,4.7,2.61l2.78,1.64Z" style="fill:#1d1d1b"/><path d="M107.32,96.84a4.31,4.31,0,0,1-.35,1.7c-1,2.46-3.54,3.07-6.86,1.77-4.15-1.63-4.78-4.41-4-6.33a3.18,3.18,0,0,1,.82-1.3l1.33.89a2.3,2.3,0,0,0-.63.94c-.45,1.17.15,2.79,3.09,3.94s4.36.46,4.87-.83a2.84,2.84,0,0,0,.22-1.13Z" style="fill:#1d1d1b"/><path d="M97.89,88.41l11.18,3-.48,1.78-11.18-3Z" style="fill:#1d1d1b"/><path d="M107.4,84.82l2.88,1.08L110,87.65,99,83.38l.31-2.11,11.81-.64-.27,1.77-3.06.16Zm-1.12-2.29-2.7.09c-.77,0-1.84,0-2.66,0v.06c.78.25,1.86.59,2.55.83l2.54.89Z" style="fill:#1d1d1b"/><path d="M99.74,76.3l0-1.83,10,.21.07-3.1,1.54,0-.1,4.93Z" style="fill:#1d1d1b"/><path d="M230.11,129.41c-3.29,1.56-9.69,2.77-17.48,2.77-29.95,0-44.14-24.4-44.14-57.64,0-44,24.41-61.1,47.08-61.1,8,0,13.5,1.56,15.75,3.11l-3.81,19A22.78,22.78,0,0,0,217,33.34c-12.81,0-24.41,11.08-24.41,40,0,27.87,10.56,38.77,24.41,38.77a39.83,39.83,0,0,0,10.9-1.73Z" style="fill:#1d1d1b"/><path d="M305.93,70.73c0,44-15.58,61.8-37.74,61.8-26.48,0-36.87-28-36.87-60.07,0-31.85,12.64-59.37,38.6-59.37C298,13.09,305.93,44.08,305.93,70.73Zm-51.07,2.08c0,26.48,5,40,14.2,40,9.69,0,13.33-17.31,13.33-41,0-20.42-3.12-38.95-13.51-38.95C259.88,32.82,254.86,47.71,254.86,72.81Z" style="fill:#1d1d1b"/><path d="M316.83,16.21A135.07,135.07,0,0,1,341.58,14c12.46,0,23.72,1.9,31.16,8.65,7.1,6.41,9.35,14.2,9.35,24.24,0,12.46-6.24,23.71-18,29.08v.34c8,3.29,11.95,10.56,14.2,23.2,2.25,13,5.36,27.35,7.44,31.67H362c-1.56-3.29-4.16-15.06-5.89-28C354,88.73,350.41,84.58,343,84.58H339.5v46.56H316.83ZM339.5,67.1h4.16c9.86,0,15.4-8,15.4-18.18,0-10-4-17-14-17.31a16.64,16.64,0,0,0-5.54.7Z" style="fill:#1d1d1b"/><path d="M394.72,16.21A135.07,135.07,0,0,1,419.47,14c12.46,0,23.72,1.9,31.16,8.65C457.73,29,460,36.81,460,46.85c0,12.46-6.24,23.71-18,29.08v.34c8,3.29,11.95,10.56,14.2,23.2,2.25,13,5.36,27.35,7.44,31.67H439.9c-1.56-3.29-4.16-15.06-5.89-28-2.08-14.37-5.71-18.52-13.15-18.52h-3.47v46.56H394.72ZM417.39,67.1h4.16c9.86,0,15.4-8,15.4-18.18,0-10-4-17-14-17.31a16.64,16.64,0,0,0-5.54.7Z" style="fill:#1d1d1b"/><path d="M495.28,14.48V131.14H472.61V14.48Z" style="fill:#1d1d1b"/><path d="M561.23,79.91H534.75v31.5h29.94v19.73H512.07V14.48h50.72V34.21h-28V61h26.48Z" style="fill:#1d1d1b"/><path d="M576.81,131.14V14.48h20.77l18,45.69c3.64,9,9.18,24.06,12.47,34.1h.34c-.69-12.29-2.25-32.54-2.25-54V14.48h19.91V131.14H625.28L607.45,86.83a350,350,0,0,1-12-35.14h-.34c.69,11.77,1.55,29.77,1.55,53.32v26.13Z" style="fill:#1d1d1b"/><path d="M675.3,35.42H654.7V14.48h64V35.42H698v95.72H675.3Z" style="fill:#1d1d1b"/><path d="M776.38,79.91H749.9v31.5h30v19.73H727.22V14.48h50.72V34.21h-28V61h26.48Z" style="fill:#1d1d1b"/><path d="M789.37,108c4.67,2.59,12.8,4.5,19.21,4.5,10.56,0,15.92-5.54,15.92-13.16,0-8.48-5.19-12.63-15.06-19-15.92-9.69-22-22-22-32.54,0-18.69,12.46-34.27,36.7-34.27,7.79,0,15.06,2.08,18.35,4.15l-3.64,19.56a27.68,27.68,0,0,0-14.71-4c-9.7,0-14.37,5.89-14.37,12.12,0,6.92,3.46,10.56,15.93,18.17,15.57,9.35,21.11,21.12,21.11,33.41,0,21.29-15.75,35.31-38.42,35.31-9.35,0-18.35-2.42-22.33-4.67Z" style="fill:#1d1d1b"/></g></g></svg>